<svg width="48" height="48" viewBox="0 0 48 48" fill="none" xmlns="http://www.w3.org/2000/svg">
<g clip-path="url(#clip0_556_21008)">
<path d="M40.7306 37.3287H29.543V17.5938C29.543 16.5699 29.9661 15.6305 30.6516 14.945C31.337 14.2596 32.2764 13.8364 33.3004 13.8364H33.8166C35.6107 14.0903 37.0578 15.6305 37.0578 17.5092V33.4866C37.0578 34.5106 37.4809 35.45 38.1664 36.1354C38.7672 36.9055 39.7066 37.3287 40.7306 37.3287Z" fill="#919AAF"/>
<path d="M29.5424 13.8364H5.44935C2.80055 13.8364 0.667969 15.969 0.667969 18.6178V48H29.5424V17.5938C29.5424 16.5699 29.9656 15.6305 30.651 14.945C31.3365 14.2596 32.2759 13.8364 33.2998 13.8364H29.5424Z" fill="#D7DEED"/>
<path d="M44.4877 19.2186V33.6559C44.4877 35.7038 42.7783 37.4133 40.7303 37.4133C39.7063 37.4133 38.767 36.9901 38.0815 36.3047C37.396 35.6192 36.9729 34.6798 36.9729 33.6559V17.5938C36.9729 15.7151 35.602 14.1749 33.7317 13.921H9.20703V4.5275C9.20703 2.04795 11.1704 0 13.7345 0H39.9602C42.4398 0 44.4877 2.04795 44.4877 4.5275V19.2186Z" fill="#AFB9D2"/>
<path d="M24.1521 42.7109H22.0195V44.8435H24.1521V42.7109Z" fill="#32313F"/>
<path d="M24.1521 37.3286H22.0195V41.6022H24.1521V37.3286Z" fill="#32313F"/>
<path d="M20.9959 42.7109H18.8633V44.8435H20.9959V42.7109Z" fill="#32313F"/>
<path d="M20.9959 30.9224H18.8633V41.6022H20.9959V30.9224Z" fill="#32313F"/>
<path d="M17.7459 42.7109H15.6133V44.8435H17.7459V42.7109Z" fill="#32313F"/>
<path d="M17.7459 33.5713H15.6133V41.6023H17.7459V33.5713Z" fill="#32313F"/>
<path d="M14.5896 42.7109H12.457V44.8435H14.5896V42.7109Z" fill="#32313F"/>
<path d="M14.5896 35.1875H12.457V41.5937H14.5896V35.1875Z" fill="#32313F"/>
<path d="M11.3396 42.7109H9.20703V44.8435H11.3396V42.7109Z" fill="#32313F"/>
<path d="M11.3396 33.0552H9.20703V41.594H11.3396V33.0552Z" fill="#32313F"/>
<path d="M8.18336 42.7109H6.05078V44.8435H8.18336V42.7109Z" fill="#32313F"/>
<path d="M8.18336 34.1636H6.05078V41.6784H8.18336V34.1636Z" fill="#32313F"/>
<path d="M15.6128 20.2426H6.05001C5.44916 20.2426 4.94141 19.7264 4.94141 19.134C4.94141 18.5416 5.45763 18.0254 6.05001 18.0254H15.7059C16.3067 18.0254 16.8145 18.5416 16.8145 19.134C16.7298 19.8195 16.2136 20.2426 15.6212 20.2426H15.6128Z" fill="#32313F"/>
<path d="M20.995 23.4921H6.05001C5.44916 23.4921 4.94141 22.9759 4.94141 22.3835C4.94141 21.7911 5.45763 21.2749 6.05001 21.2749H20.995C21.5958 21.2749 22.1036 21.7911 22.1036 22.3835C22.019 22.9844 21.5028 23.4921 20.995 23.4921Z" fill="#32313F"/>
<path d="M24.16 26.6488H6.05001C5.44916 26.6488 4.94141 26.1326 4.94141 25.5402C4.94141 24.9479 5.45763 24.4316 6.05001 24.4316H24.2447C24.8455 24.4316 25.3533 24.9479 25.3533 25.5402C25.3533 26.1326 24.7524 26.6488 24.16 26.6488Z" fill="#32313F"/>
<path d="M46.6202 43.7348H33.8078C33.207 43.7348 32.6992 43.2186 32.6992 42.6262C32.6992 42.0338 33.2154 41.5176 33.8078 41.5176H46.6202C47.2211 41.5176 47.7288 42.0338 47.7288 42.6262C47.6442 43.3117 47.128 43.7348 46.6202 43.7348Z" fill="#919AAF"/>
<path d="M46.6202 46.976H33.8078C33.207 46.976 32.6992 46.4598 32.6992 45.8674C32.6992 45.275 33.2154 44.7588 33.8078 44.7588H46.6202C47.2211 44.7588 47.7288 45.275 47.7288 45.8674C47.6442 46.4682 47.128 46.976 46.6202 46.976Z" fill="#919AAF"/>
</g>
<defs>
<clipPath id="clip0_556_21008">
<rect width="47.0691" height="48" fill="white" transform="translate(0.667969)"/>
</clipPath>
</defs>
</svg>
