<svg width="48" height="48" viewBox="0 0 48 48" fill="none" xmlns="http://www.w3.org/2000/svg">
<path d="M12.7427 18.8608C11.3322 18.2699 9.92298 17.6743 8.51134 17.0882C7.05562 16.483 5.59514 15.891 4.14061 15.2858C3.34247 14.9535 2.97794 14.4376 3.00534 13.6526C3.03274 12.8509 3.40799 12.2838 4.17158 11.9682C10.2196 9.47366 16.27 6.98512 22.3061 4.46322C23.7344 3.8664 25.0925 3.83423 26.5327 4.43701C32.5962 6.97201 38.6764 9.46651 44.7483 11.9813C45.874 12.447 46.279 13.8503 45.5154 14.7521C45.2724 15.0392 44.8757 15.2286 44.5148 15.3799C41.8261 16.5045 39.1291 17.6076 36.4357 18.719C36.3415 18.7583 36.2534 18.8119 36.1617 18.8596C36.008 18.9132 35.8519 18.9597 35.7018 19.0204C32.8607 20.1878 30.0183 21.3541 27.1796 22.5287C25.3391 23.2911 23.5057 23.2542 21.676 22.5096C19.3816 21.5757 17.0896 20.6346 14.7964 19.6959C14.1115 19.4183 13.4265 19.1395 12.7415 18.862L12.7427 18.8608Z" fill="#55A1FE"/>
<path d="M39.0035 30.5122C40.9 31.2913 42.7953 32.0764 44.6954 32.8495C45.4732 33.1664 45.8711 33.7453 45.883 34.5673C45.8949 35.3916 45.4613 35.9098 44.7013 36.2219C39.7766 38.2387 34.8579 40.2687 29.938 42.295C28.9898 42.6857 28.0415 43.0753 27.0921 43.4648C25.3088 44.1986 23.5183 44.1653 21.7517 43.441C15.9205 41.0501 10.0976 38.6378 4.26995 36.2362C3.35983 35.861 2.99412 35.3845 3.00007 34.5601C3.00603 33.7441 3.43488 33.1711 4.28663 32.8197C7.10277 31.657 9.91891 30.492 12.735 29.3281C13.3914 29.5985 14.0478 29.869 14.7054 30.1394C14.6065 30.3359 14.5112 30.5349 14.4076 30.729C14.0025 31.4926 14.3039 32.3575 15.0949 32.6946C17.0879 33.5428 19.0845 34.385 21.0739 35.2415C22.6427 35.917 24.27 36.2005 25.9318 35.7526C27.2136 35.4071 28.4752 34.9544 29.7081 34.4601C31.8012 33.6202 33.8656 32.7113 35.9408 31.8286C36.9629 31.3938 37.9826 30.9518 39.0035 30.5134V30.5122Z" fill="#FEAB61"/>
<path d="M14.7047 30.1394C14.0483 29.869 13.3919 29.5986 12.7344 29.3282C11.798 28.9243 10.8653 28.5098 9.92418 28.1178C8.04557 27.3376 6.16695 26.5573 4.27761 25.8056C3.49495 25.4935 2.99105 25.0051 3.00416 24.1271C3.01726 23.2611 3.4616 22.7036 4.26689 22.3736C7.09613 21.2145 9.91703 20.0328 12.7415 18.8594C13.4265 19.1369 14.1115 19.4157 14.7964 19.6933C14.7273 19.804 14.6606 19.916 14.588 20.0244C13.928 21.006 14.333 21.9638 15.2253 22.3236C17.1778 23.1086 19.104 23.9615 21.0315 24.8085C22.0917 25.2743 23.2055 25.5626 24.3432 25.5435C25.2605 25.528 26.2039 25.3541 27.0807 25.0754C28.3339 24.6763 29.543 24.1319 30.7605 23.6244C33.1823 22.6166 35.5994 21.5945 38.0153 20.57C38.3584 20.4247 38.6788 20.2269 39.01 20.053C40.9029 20.8345 42.7982 21.6112 44.6887 22.3974C45.8919 22.8977 46.2993 24.3404 45.4726 25.2481C45.2534 25.4887 44.9282 25.6603 44.6208 25.7877C41.894 26.923 39.1601 28.0404 36.4285 29.165C36.3356 29.2031 36.2534 29.2662 36.1652 29.3174C36.0104 29.3675 35.8508 29.4068 35.7007 29.4675C32.9727 30.5897 30.234 31.6857 27.5239 32.8483C25.6297 33.6596 23.7428 33.7811 21.8272 33.0175C20.1059 32.3325 18.4012 31.6047 16.6858 30.9054C16.0306 30.6374 15.3647 30.3932 14.7035 30.1382L14.7047 30.1394Z" fill="#FEC761"/>
<path d="M39.0105 20.0554C38.6794 20.2293 38.3589 20.4271 38.0158 20.5724C35.6012 21.5981 33.1841 22.619 30.7611 23.6268C29.5436 24.1331 28.3345 24.6787 27.0813 25.0777C26.2045 25.3565 25.261 25.5304 24.3438 25.5459C23.2061 25.565 22.0923 25.2767 21.032 24.8109C19.1046 23.9639 17.1783 23.111 15.2259 22.3259C14.3324 21.9662 13.9286 21.0084 14.5885 20.0268C14.6612 19.9184 14.7279 19.8064 14.797 19.6956C17.0902 20.6344 19.381 21.5754 21.6765 22.5094C23.5063 23.2539 25.3396 23.2909 27.1801 22.5285C30.0177 21.3527 32.8601 20.1876 35.7024 19.0202C35.8525 18.9582 36.0086 18.913 36.1622 18.8594C37.1117 19.2584 38.0611 19.6563 39.0117 20.0554H39.0105Z" fill="#FDAA61"/>
<path d="M14.7028 30.1386C15.364 30.3936 16.0287 30.6378 16.6851 30.9058C18.4005 31.6063 20.1052 32.333 21.8266 33.0179C23.7433 33.7815 25.6303 33.66 27.5232 32.8488C30.2345 31.6873 32.972 30.5901 35.7 29.468C35.8501 29.406 36.0097 29.3667 36.1646 29.3179C37.1104 29.7158 38.0563 30.1136 39.0021 30.5115C37.9812 30.9499 36.9615 31.3919 35.9394 31.8267C33.8642 32.7094 31.7998 33.6183 29.7067 34.4582C28.4726 34.9537 27.2123 35.4052 25.9305 35.7507C24.2686 36.1986 22.6426 35.9151 21.0725 35.2396C19.0831 34.3831 17.0865 33.5409 15.0936 32.6927C14.3026 32.3568 14.0012 31.4919 14.4062 30.7271C14.5098 30.533 14.6052 30.334 14.704 30.1375L14.7028 30.1386Z" fill="#FE8F64"/>
</svg>
