<svg width="49" height="48" viewBox="0 0 49 48" fill="none" xmlns="http://www.w3.org/2000/svg">
<path d="M17.6655 27.0564C16.5018 25.4799 15.752 23.7168 15.3499 21.8108C13.8716 14.7988 17.3925 7.92665 24.014 5.19292C28.9247 3.16528 33.6498 3.75619 38.072 6.70857C38.104 6.72991 38.1264 6.76404 38.1541 6.79284C38.1968 6.91443 38.2224 7.04669 38.2864 7.15548C39.1354 8.61141 39.8116 10.1409 40.1188 11.8049C40.2703 12.6229 40.378 13.456 40.4047 14.2858C40.4292 15.0708 40.3215 15.8601 40.2724 16.6473C40.2361 16.5054 40.1967 16.3646 40.1647 16.2217C38.7109 9.74416 31.5582 6.10487 25.4422 8.72981C20.7683 10.7361 18.0986 15.5497 19.0361 20.5554C19.8606 24.9615 22.5399 27.7881 26.8224 29.0989C26.6816 29.2184 26.5397 29.3378 26.399 29.4584C25.5638 29.4296 24.719 29.4712 23.8945 29.3581C21.8648 29.0776 19.9534 28.4206 18.1903 27.3571C18.0474 27.2708 17.8842 27.2196 17.7306 27.1513L17.7402 27.1577C17.7157 27.1246 17.6911 27.0916 17.6666 27.0574L17.6655 27.0564Z" fill="#0F9C4B"/>
<path d="M40.2704 16.6474C40.3195 15.8603 40.4272 15.071 40.4027 14.2859C40.376 13.4561 40.2683 12.622 40.1168 11.805C39.8097 10.1411 39.1334 8.61261 38.2844 7.15562C38.2204 7.04576 38.1959 6.91456 38.1521 6.79297C39.6134 7.78705 40.7952 9.05632 41.7904 10.5069C46.8312 17.8548 43.9332 28.2575 35.8173 31.9533C35.7437 31.7997 35.6701 31.6451 35.5944 31.4915C35.0707 30.4206 34.3369 29.5406 33.2831 28.9508C33.2756 28.9199 33.2681 28.89 33.2617 28.8591C35.1923 28.1732 36.8082 27.0362 38.0764 25.431C40.1254 22.838 40.7995 19.8899 40.2704 16.6463V16.6474Z" fill="#0D8A42"/>
<path d="M33.2643 28.8607C33.2718 28.8916 33.2793 28.9215 33.2857 28.9524C33.339 29.1551 33.3678 29.3684 33.4489 29.5593C33.8446 30.4905 33.9384 31.476 33.8115 32.4509C33.6334 33.8279 33.0169 35.0033 31.9993 35.991C30.297 37.6453 27.6678 38.0688 25.5389 37.1184C25.4343 37.0715 25.3074 37.079 25.1901 37.0608C24.3656 35.7553 24.1512 34.3388 24.4253 32.8349C24.4509 32.692 24.484 32.5501 24.5138 32.4072C24.8594 31.2446 25.5111 30.2772 26.3975 29.4612C26.5383 29.3417 26.6801 29.2223 26.8209 29.1018C26.9169 29.058 27.0182 29.0239 27.1078 28.9695C28.4112 28.1706 29.8245 27.8912 31.3146 28.1951C31.9812 28.3317 32.6148 28.6346 33.2633 28.8618L33.2643 28.8607ZM29.3904 34.7431C29.1707 34.5031 28.9872 34.294 28.7952 34.0935C28.5958 33.8866 28.36 33.8077 28.1307 34.0252C27.8982 34.2471 27.9761 34.4807 28.1798 34.6865C28.4422 34.9511 28.7035 35.2156 28.9702 35.4758C29.3147 35.8129 29.5088 35.8161 29.8448 35.4812C30.6362 34.694 31.4255 33.9026 32.2137 33.1122C32.2788 33.0472 32.3854 32.9736 32.3876 32.9032C32.3908 32.724 32.4036 32.4915 32.3023 32.3805C32.2191 32.2899 31.9684 32.3069 31.8095 32.3453C31.6975 32.372 31.6111 32.5128 31.5172 32.6067C30.825 33.301 30.1328 33.9965 29.3915 34.742L29.3904 34.7431Z" fill="#F04F4A"/>
<path d="M17.6341 33.621C15.2481 36.0006 12.8621 38.3813 10.4771 40.762C9.60035 41.6366 8.73426 42.523 7.8447 43.3859C7.241 43.9715 6.51357 44.1528 5.70934 43.8669C4.90832 43.5821 4.45287 42.9923 4.34834 42.1529C4.26408 41.4745 4.51047 40.9017 4.99044 40.4218C6.17865 39.2368 7.36579 38.0496 8.55187 36.8614C10.604 34.8071 12.6541 32.7507 14.7052 30.6953C14.7308 30.6985 14.766 30.6921 14.7809 30.706C15.7291 31.651 16.6763 32.5971 17.6223 33.5453C17.6373 33.5602 17.6309 33.5954 17.6341 33.62V33.621Z" fill="#484848"/>
<path d="M25.1914 37.0591C25.3087 37.0772 25.4357 37.0697 25.5402 37.1167C27.6692 38.067 30.2973 37.6446 32.0007 35.9893C33.0182 35.0005 33.6347 33.8251 33.8128 32.4492C33.9387 31.4743 33.8459 30.4887 33.4502 29.5576C33.3691 29.3667 33.3403 29.1544 33.287 28.9507C34.3408 29.5405 35.0746 30.4205 35.5984 31.4914C35.673 31.645 35.7466 31.7996 35.8213 31.9532C36.1605 33.0806 36.2714 34.2155 35.9951 35.3781C35.4512 37.6671 33.5387 39.4515 31.189 39.8419C28.8851 40.2248 26.5065 39.1656 25.2607 37.2009C25.233 37.1572 25.2149 37.106 25.1925 37.0591H25.1914Z" fill="#D84844"/>
<path d="M17.6349 33.6205C17.6317 33.5949 17.6381 33.5597 17.6231 33.5459C16.677 32.5976 15.7299 31.6516 14.7817 30.7065C14.7667 30.6927 14.7315 30.6991 14.7059 30.6959C14.4905 30.2628 14.1694 29.8618 14.3913 29.3199C14.7027 28.5573 15.603 28.152 16.3389 28.7173C16.4072 28.7696 16.5053 28.7824 16.5896 28.8144C16.6312 28.8912 16.6579 28.984 16.7176 29.0437C17.5709 29.9023 18.4274 30.7577 19.2871 31.61C19.3468 31.6697 19.4385 31.6964 19.5153 31.739C19.622 32.0825 19.8033 32.4238 19.8193 32.7715C19.862 33.6728 18.9521 34.2466 18.1234 33.8786C17.9559 33.804 17.7981 33.708 17.6359 33.6227L17.6349 33.6205Z" fill="#E6EFF6"/>
<path d="M26.3988 29.4575C25.5114 30.2745 24.8597 31.2409 24.5152 32.4035C23.2598 31.9096 22.0748 31.2857 20.9847 30.4878C20.9335 30.4505 20.8663 30.4345 20.8066 30.4089C20.2135 29.8617 19.6056 29.3273 19.0317 28.761C18.6371 28.3717 18.2883 27.9365 17.9182 27.5226C17.8553 27.3989 17.7934 27.2741 17.7305 27.1504C17.8841 27.2187 18.0483 27.2699 18.1902 27.3562C19.9533 28.4197 21.8647 29.0778 23.8944 29.3572C24.7179 29.4713 25.5626 29.4287 26.3988 29.4575Z" fill="#0D8A41"/>
<path d="M17.916 27.5226C18.2851 27.9375 18.6349 28.3726 19.0295 28.7609C19.6045 29.3273 20.2114 29.8616 20.8044 30.4088C20.3735 30.8515 19.9426 31.2952 19.5117 31.7378C19.4349 31.6951 19.3431 31.6685 19.2834 31.6087C18.4237 30.7565 17.5672 29.9011 16.7139 29.0425C16.6542 28.9827 16.6286 28.891 16.5859 28.8132C17.0286 28.3822 17.4723 27.9524 17.9149 27.5215L17.916 27.5226Z" fill="#484848"/>
<path d="M17.6641 27.0562C17.6886 27.0892 17.7131 27.1223 17.7377 27.1564C17.7131 27.1233 17.6886 27.0903 17.6641 27.0562Z" fill="#0D8A41"/>
<path d="M33.2624 28.8592C32.6139 28.632 31.9814 28.3291 31.3137 28.1926C29.8236 27.8886 28.4104 28.1681 27.107 28.9669C27.0174 29.0213 26.916 29.0555 26.8201 29.0992C22.5376 27.7883 19.8593 24.9618 19.0338 20.5556C18.0973 15.5511 20.766 10.7364 25.4399 8.73008C31.5558 6.10408 38.7085 9.74443 40.1623 16.222C40.1943 16.3649 40.2338 16.5057 40.2701 16.6476C40.8002 19.8901 40.125 22.8382 38.076 25.4322C36.8078 27.0374 35.1919 28.1744 33.2613 28.8603L33.2624 28.8592ZM25.3503 20.9865C24.7114 20.9823 24.0725 20.9695 23.4346 20.9769C23.0592 20.9812 22.8629 21.17 22.8608 21.5433C22.8554 22.4745 22.8672 23.4056 22.8725 24.3368C22.8853 24.7656 23.0325 24.9586 23.4154 24.9661C24.2015 24.981 24.9887 24.9789 25.7748 24.9661C26.1172 24.9607 26.3273 24.7666 26.3305 24.4136C26.3379 23.4408 26.339 22.4681 26.3283 21.4953C26.3251 21.1604 26.1172 20.9908 25.7897 20.9759C25.6436 20.9684 25.4974 20.9823 25.3513 20.9865H25.3503ZM25.3983 15.6204C25.2852 15.582 25.1732 15.5425 25.0591 15.5063C24.3274 15.277 23.5391 15.614 23.2053 16.2956C22.8693 16.9835 23.0805 17.7974 23.7119 18.2443C24.3274 18.6795 25.1903 18.5909 25.714 18.032C26.2238 17.488 26.2249 16.8673 25.9785 16.2124C26.9438 15.2802 27.9091 14.349 28.8743 13.4168C29.4653 13.708 30.0359 13.6269 30.5948 13.3229C31.4822 14.013 32.3707 14.7031 33.2581 15.3932C33.2304 15.5223 33.1952 15.6513 33.1749 15.7825C33.0725 16.4556 33.4139 17.0987 34.0261 17.391C34.6533 17.6907 35.385 17.5456 35.8468 17.0305C36.3097 16.5142 36.3737 15.7655 36.0057 15.182C35.5311 14.429 34.7055 14.2669 33.7616 14.7405C32.8741 14.0429 31.9878 13.3464 31.1004 12.6488C31.1196 12.5582 31.1388 12.4686 31.159 12.3779C31.302 11.707 30.9852 11.0212 30.3836 10.6959C29.7628 10.3609 28.9981 10.474 28.5245 10.9881C28.0275 11.5278 28.0029 12.1464 28.2642 12.8003C27.3086 13.74 26.3529 14.6797 25.3972 15.6193L25.3983 15.6204ZM35.434 19.312C34.8079 19.3077 34.1807 19.2938 33.5546 19.3024C33.1643 19.3077 32.9563 19.5135 32.9563 19.8975C32.9541 21.3769 32.9616 22.8563 32.9659 24.3368C32.9861 24.7677 33.1536 24.9618 33.5557 24.9682C34.3141 24.9789 35.0724 24.9789 35.8308 24.9682C36.2372 24.9629 36.4516 24.756 36.4548 24.3485C36.4644 22.8723 36.4644 21.3951 36.4548 19.9189C36.4526 19.5093 36.2372 19.3141 35.8329 19.2992C35.7007 19.2949 35.5673 19.3077 35.4351 19.312H35.434ZM27.9197 24.3368C27.9347 24.789 28.0989 24.965 28.5448 24.9693C29.2242 24.9767 29.9036 24.9725 30.5831 24.9714C31.2422 24.9714 31.4065 24.8061 31.4076 24.1437C31.4076 21.7193 31.4076 19.2949 31.4076 16.8705C31.4076 16.0588 31.2145 15.8903 30.3932 15.9831C29.7554 15.9767 29.1165 15.9585 28.4786 15.9703C28.1245 15.9767 27.9059 16.1665 27.9059 16.5473C27.9101 19.1434 27.9144 21.7406 27.9187 24.3368H27.9197Z" fill="#E6EFF6"/>
<path d="M29.3915 34.7411C30.1328 33.9966 30.8239 33.3012 31.5172 32.6057C31.6111 32.5119 31.6975 32.3711 31.8095 32.3444C31.9695 32.306 32.2191 32.2879 32.3023 32.3796C32.4036 32.4905 32.3919 32.723 32.3876 32.9022C32.3865 32.9737 32.2799 33.0462 32.2137 33.1113C31.4244 33.9017 30.6362 34.692 29.8448 35.4802C29.5088 35.8141 29.3157 35.812 28.9702 35.4749C28.7035 35.2147 28.4422 34.9501 28.1798 34.6856C27.9761 34.4798 27.8982 34.2462 28.1307 34.0243C28.3601 33.8057 28.5958 33.8846 28.7952 34.0926C28.9872 34.2931 29.1707 34.5011 29.3904 34.7421L29.3915 34.7411Z" fill="#E7EDF3"/>
<path d="M27.9191 24.3362C27.9148 21.7401 27.9094 19.1429 27.9062 16.5467C27.9062 16.1659 28.1249 15.9761 28.479 15.9697C29.1169 15.958 29.7558 15.9761 30.3936 15.9825C30.3936 17.6709 30.3979 19.3594 30.3893 21.0478C30.3872 21.3763 30.3616 21.7102 30.3051 22.0334C30.1035 23.196 29.0006 24.2509 27.9191 24.3351V24.3362Z" fill="#475DA9"/>
<path d="M27.9219 24.335C29.0024 24.2508 30.1052 23.1959 30.3079 22.0333C30.3644 21.709 30.39 21.3762 30.3922 21.0477C30.4007 19.3593 30.3964 17.6708 30.3964 15.9824C31.2166 15.8896 31.4108 16.0581 31.4108 16.8698C31.4108 19.2942 31.4108 21.7186 31.4108 24.143C31.4108 24.8054 31.2454 24.9697 30.5863 24.9707C29.9068 24.9707 29.2274 24.9761 28.548 24.9686C28.1021 24.9633 27.9379 24.7873 27.9229 24.3361L27.9219 24.335Z" fill="#44589A"/>
<path d="M32.9673 24.3365C32.9631 22.8571 32.9545 21.3777 32.9577 19.8972C32.9577 19.5132 33.1668 19.3074 33.5561 19.302C34.1822 19.2935 34.8094 19.3074 35.4355 19.3116C35.4077 20.2385 35.444 21.1729 35.3373 22.0902C35.2062 23.2133 34.0489 24.2469 32.9673 24.3354V24.3365Z" fill="#F04F4A"/>
<path d="M32.9659 24.3367C34.0475 24.2471 35.2047 23.2146 35.3359 22.0915C35.4437 21.1742 35.4074 20.2399 35.4341 19.313C35.5663 19.3087 35.6996 19.2959 35.8319 19.3002C36.2372 19.3151 36.4516 19.5103 36.4537 19.9199C36.4633 21.3961 36.4633 22.8733 36.4537 24.3495C36.4516 24.757 36.2361 24.9639 35.8298 24.9692C35.0714 24.9799 34.313 24.9799 33.5547 24.9692C33.1526 24.9639 32.9851 24.7687 32.9648 24.3378L32.9659 24.3367Z" fill="#D94A46"/>
<path d="M30.5969 13.3232C30.038 13.6282 29.4673 13.7093 28.8764 13.4181C28.6727 13.2122 28.47 13.0064 28.2663 12.8016C28.005 12.1477 28.0285 11.5291 28.5266 10.9894C29.0001 10.4753 29.7649 10.3622 30.3857 10.6972C30.9873 11.0214 31.303 11.7083 31.1611 12.3792C31.1419 12.4699 31.1227 12.5605 31.1035 12.6501C30.935 12.8741 30.7665 13.0992 30.5979 13.3232H30.5969Z" fill="#F58824"/>
<path d="M33.7648 14.7421C34.7087 14.2685 35.5343 14.4306 36.0089 15.1836C36.3769 15.7671 36.3129 16.5158 35.85 17.0321C35.3882 17.5473 34.6565 17.6923 34.0293 17.3926C33.4171 17.1003 33.0758 16.4572 33.1782 15.7841C33.1984 15.6529 33.2326 15.525 33.2613 15.3948C33.4288 15.1772 33.5973 14.9596 33.7648 14.7421Z" fill="#F68723"/>
<path d="M25.9831 16.2129C26.2295 16.8678 26.2273 17.4896 25.7185 18.0325C25.1948 18.5914 24.3309 18.6799 23.7165 18.2448C23.0851 17.7979 22.8728 16.984 23.2099 16.2961C23.5437 15.6134 24.3319 15.2774 25.0636 15.5068C25.1778 15.542 25.2898 15.5825 25.4028 15.6209C25.5969 15.8182 25.79 16.0166 25.9841 16.2139L25.9831 16.2129Z" fill="#F68823"/>
<path d="M25.3538 20.985C25.4999 20.9807 25.6471 20.9669 25.7922 20.9743C26.1196 20.9903 26.3266 21.1589 26.3308 21.4938C26.3415 22.4665 26.3404 23.4393 26.333 24.412C26.3298 24.764 26.1196 24.9592 25.7773 24.9645C24.9912 24.9773 24.204 24.9795 23.4179 24.9645C23.035 24.9571 22.8878 24.764 22.875 24.3352C23.1139 24.268 23.371 24.236 23.5907 24.1294C24.8973 23.4905 25.3869 22.3823 25.3527 20.9861L25.3538 20.985Z" fill="#E3BB17"/>
<path d="M25.3502 20.9847C25.3843 22.3809 24.8948 23.4891 23.5882 24.128C23.3684 24.2357 23.1125 24.2677 22.8725 24.3339C22.8671 23.4027 22.8554 22.4716 22.8607 21.5404C22.8629 21.1671 23.0591 20.9783 23.4346 20.974C24.0735 20.9676 24.7124 20.9794 25.3502 20.9836V20.9847Z" fill="#FCCE17"/>
<path d="M25.9797 16.2139C25.7856 16.0165 25.5926 15.8181 25.3984 15.6208C26.3541 14.6811 27.3098 13.7414 28.2655 12.8018C28.4692 13.0076 28.6719 13.2124 28.8756 13.4183C27.9103 14.3505 26.945 15.2816 25.9797 16.2139Z" fill="#4B4B4B"/>
<path d="M33.7644 14.7406C33.597 14.9581 33.4284 15.1757 33.261 15.3933C32.3736 14.7032 31.4851 14.0131 30.5977 13.322C30.7662 13.0969 30.9347 12.8729 31.1032 12.6489C31.9907 13.3465 32.877 14.043 33.7644 14.7406Z" fill="#4B4B4A"/>
</svg>
