<svg width="344" height="36" viewBox="0 0 344 36" fill="none" xmlns="http://www.w3.org/2000/svg">
<path d="M166.668 9.41465L167.144 14.5662H166.219L164.761 11.0385H159.911V28.6212L162.827 29.2931V30.329H153.631V29.2931L156.547 28.6212V11.0385H151.696L150.238 14.5662H149.313L149.79 9.41465H166.668ZM125.79 29.2931V30.329H116.818V29.2931L119.734 28.6491L117.744 23.1896H109.949L107.903 28.7052L110.538 29.2931V30.329H103.697V29.2931L106.193 28.5932L106.277 28.3412L113.398 9.41465L115.837 8.79869L123.295 28.5931L125.79 29.2931ZM117.155 21.5657L113.874 12.6344L110.566 21.5657H117.155ZM185.261 29.6571C186.915 30.441 189.242 30.973 191.261 30.973C195.775 30.973 198.999 28.5091 198.999 25.0094C198.999 22.2376 197.709 20.5857 194.037 18.6539L191.57 17.366C189.186 16.1061 188.205 15.0421 188.205 13.3623C188.205 11.3185 189.887 10.1426 192.242 10.1426C193.168 10.1426 194.149 10.3386 195.13 10.7585L196.84 14.4262H197.738L197.233 9.55459C196.055 9.13465 193.785 8.77065 192.327 8.77065C188.037 8.77065 185.374 10.9265 185.374 14.4262C185.374 16.778 187 18.7659 190.336 20.5018L192.439 21.5937C194.822 22.8256 195.831 24.1134 195.831 25.8773C195.831 28.2571 193.756 29.629 191.121 29.629C189.859 29.629 188.654 29.2371 187.168 28.3131L185.542 24.5894H184.673L185.261 29.6571ZM180.444 30.329V29.2931L177.5 28.6211V11.1225L180.444 10.4505V9.41458H171.248V10.4505L174.192 11.1225V28.6211L171.248 29.2931V30.329H180.444ZM148.783 29.321V30.329H143.288L137.064 20.7257H134.625V28.6211L137.457 29.2931V30.329H128.85V29.2931L131.289 28.6211V11.1225L128.85 10.4505V9.41458C129.326 9.41458 133.027 9.30262 136.7 9.30262C142.671 9.30262 145.083 11.7384 145.083 14.9302C145.083 18.8498 140.933 19.9138 140.204 20.1098L145.783 28.5652L148.783 29.321ZM141.69 15.1542C141.69 11.5145 139.111 10.8985 134.625 10.8985V19.2139H135.971C139.475 19.2139 141.69 17.842 141.69 15.1542ZM95.9125 30.693L103.23 11.1505L105.529 10.4506V9.41465H99.2488V10.4506L101.548 11.0385L95.8843 26.3533L90.249 11.0945L92.8004 10.4506V9.41465H84.3053V10.4506L86.6323 11.1505L94.034 30.693H95.9125ZM83.1112 19.3252C83.1112 26.7446 77.9525 30.9723 72.2609 30.9723C66.5135 30.9723 61.4388 26.6326 61.4388 19.8852C61.4388 13.0817 66.5695 8.77002 72.2328 8.77002C79.1859 8.77002 83.1112 14.1456 83.1112 19.3252ZM79.4665 20.4178C79.4665 14.9862 76.2422 10.0306 71.8123 10.0306C67.1021 10.0306 65.0275 14.2862 65.0275 19.1298C65.0275 23.9734 67.6911 29.741 72.7377 29.741C77.4756 29.7411 79.4665 25.2054 79.4665 20.4178ZM58.1346 10.4506V9.41465H51.6582V10.4506L54.2095 11.0385V24.4214L42.6585 9.41465H37.1914V10.4506C37.4157 10.4785 37.696 10.5345 37.8362 10.5625C38.4249 10.7025 39.3502 11.0664 39.8268 11.4584V28.621L37.5278 29.293V30.3289H43.9762V29.293L41.4249 28.705V13.2224L54.9945 30.665H55.9477C55.8916 30.273 55.8356 27.8652 55.8356 26.7733V11.1225L58.1346 10.4506Z" fill="#0460A9"/>
<path d="M18.337 14.4177L18.2613 14.6071C19.5066 15.1525 22.2921 17.3177 22.2921 21.672C22.2921 25.7718 18.8282 29.9093 13.3878 29.9093C6.61493 29.9093 4.28087 25.9579 4.28087 22.3253C4.28087 17.6721 7.53936 14.57 7.53936 10.3318C7.53936 7.38072 5.30387 4.46757 2.3111 3.93799L2.19765 4.12742C3.44727 5.45124 3.86421 6.73798 3.86421 8.10016C3.86421 12.6778 0 15.9314 0 21.1901C0 26.0335 3.39146 30.9644 13.1991 30.9644C21.9417 30.9644 26.5527 26.6905 26.5527 22.1362C26.5526 18.2397 23.7484 14.9375 18.337 14.4177Z" fill="url(#paint0_linear_727_4619)"/>
<path d="M13.3109 24.4467L15.7736 1.02734H10.6211L13.0838 24.4467H13.3109Z" fill="#0460A9"/>
<rect x="211" width="1" height="32" fill="#C8C8CA"/>
<g clip-path="url(#clip0_727_4619)">
<path d="M343.433 16.5011C343.433 16.409 343.44 16.3459 343.433 16.2862C343.169 14.151 342.048 12.645 340.09 11.7616C339.004 11.2704 337.849 11.0538 336.669 10.9719C335.11 10.8645 333.572 10.9651 332.078 11.4631C331.053 11.8059 330.122 12.309 329.369 13.1004C328.302 14.2243 327.932 15.5853 328.056 17.1015C328.203 18.899 329.085 20.1884 330.725 20.9593C331.733 21.4317 332.808 21.6722 333.892 21.8717C334.83 22.044 335.77 22.2043 336.706 22.3902C337.192 22.4857 337.665 22.6409 338.086 22.9189C338.946 23.4868 338.987 24.667 338.151 25.2725C337.916 25.443 337.632 25.5658 337.354 25.6562C336.706 25.866 336.031 25.8711 335.366 25.7892C333.947 25.617 333.147 24.87 332.855 23.497C332.838 23.4152 332.804 23.3367 332.78 23.2634H327.616C327.597 23.3111 327.582 23.3333 327.582 23.3572C327.582 23.4442 327.582 23.5312 327.591 23.6164C327.72 24.9569 328.225 26.1286 329.165 27.1007C330.096 28.0644 331.249 28.6442 332.523 28.9938C334.404 29.5106 336.314 29.5686 338.236 29.277C339.346 29.1081 340.409 28.7841 341.383 28.2059C342.643 27.4555 343.51 26.4032 343.856 24.9604C344.02 24.2782 344.03 23.584 343.962 22.8916C343.829 21.5528 343.303 20.4118 342.213 19.5727C341.588 19.0901 340.88 18.7694 340.133 18.5255C339.022 18.1623 337.868 18.0003 336.723 17.7802C335.922 17.6268 335.122 17.4596 334.331 17.2601C334.049 17.1901 333.778 17.0367 333.536 16.8712C333.19 16.6342 333.065 16.2794 333.137 15.8616C333.202 15.4744 333.386 15.1538 333.72 14.9525C333.961 14.8076 334.223 14.6745 334.494 14.608C335.226 14.4255 335.973 14.4341 336.705 14.608C337.537 14.8059 338.072 15.3226 338.27 16.1686C338.294 16.2743 338.321 16.3817 338.35 16.5028H343.436H343.433V16.5011Z" fill="black"/>
<path d="M318.599 22.31H313.326C313.247 22.6358 313.187 22.9411 313.099 23.2361C312.882 23.9473 312.495 24.5391 311.832 24.9126C310.793 25.4993 308.989 25.4652 307.946 24.3515C307.477 23.8501 307.181 23.2566 306.995 22.6068C306.698 21.5715 306.64 20.509 306.715 19.4397C306.775 18.5699 306.927 17.7188 307.314 16.9258C307.9 15.7234 308.859 15.0822 310.203 15.06C311.347 15.0412 312.212 15.529 312.744 16.554C312.874 16.8047 312.959 17.081 313.06 17.3453C313.094 17.4357 313.118 17.5295 313.147 17.6233H318.466C318.466 17.5619 318.471 17.5244 318.466 17.4886C317.994 14.5876 316.406 12.5751 313.643 11.5433C311.857 10.8781 310.005 10.7911 308.148 11.1715C305.187 11.7769 303.052 13.4534 301.846 16.2419C301.005 18.1879 300.853 20.2259 301.271 22.2896C301.817 24.9893 303.25 27.0973 305.731 28.3594C308.412 29.7238 311.218 29.8329 314.015 28.7551C316.279 27.8819 317.775 26.2361 318.405 23.862C318.538 23.3623 318.63 22.8541 318.599 22.3083V22.31Z" fill="black"/>
<path d="M236.488 11.4703C236.099 12.7306 235.715 13.9825 235.328 15.2343C234.937 16.4998 234.535 17.7618 234.161 19.0307C233.793 20.2826 233.454 21.5429 233.102 22.793C231.975 19.0086 230.853 15.2394 229.736 11.4925C229.188 11.4123 224.287 11.4362 224 11.5215C226.002 17.3082 228.004 23.0932 230.003 28.8748H236.022C238.029 23.071 240.032 17.2843 242.044 11.4686H236.488V11.4703Z" fill="black"/>
<path d="M267.314 28.8863V4.56604C266.792 4.48929 261.996 4.51317 261.74 4.58991C261.657 5.45801 261.699 28.6015 261.79 28.8846H267.315H267.314V28.8863Z" fill="black"/>
<path d="M325.926 28.8745V11.4751H320.41V28.8745H325.926Z" fill="black"/>
<path d="M323.191 4C322.933 4.03411 322.67 4.04434 322.421 4.10574C321.28 4.38374 320.496 5.06252 320.221 6.22225C319.947 7.37858 320.204 8.4104 321.124 9.2188C321.676 9.70486 322.341 9.90611 323.068 9.94363C325.237 10.0562 326.769 8.08294 326.107 6.02271C325.716 4.80329 324.581 4.02388 323.192 4.00171L323.191 4Z" fill="black"/>
<path fill-rule="evenodd" clip-rule="evenodd" d="M259.424 23.706C259.439 23.7131 259.458 23.7221 259.484 23.7326L259.482 23.7343C259.286 24.5717 258.93 25.3153 258.432 25.9856C257.095 27.7832 255.289 28.8286 253.106 29.2277C251.386 29.5432 249.669 29.4921 247.994 28.9702C244.964 28.0253 243.009 26.0009 242.173 22.9481C241.515 20.5382 241.648 18.1506 242.731 15.8788C244.009 13.1961 246.157 11.6083 249.081 11.0864C250.773 10.7845 252.446 10.8971 254.061 11.4957C256.367 12.3502 257.93 13.9772 258.865 16.2285C259.551 17.8777 259.805 19.6087 259.808 21.3825C259.808 21.423 259.802 21.4643 259.793 21.5181C259.789 21.5413 259.785 21.5669 259.781 21.5956H247.292C247.295 21.6442 247.296 21.6888 247.297 21.7305C247.299 21.8146 247.301 21.8865 247.321 21.9538C247.355 22.0683 247.387 22.1839 247.419 22.2996C247.509 22.6251 247.599 22.9515 247.735 23.2585C248.456 24.8906 249.908 25.549 251.606 25.4006C252.359 25.3341 253.031 25.0731 253.546 24.4984C253.716 24.3074 253.853 24.0805 253.986 23.8588C254.057 23.7394 254.134 23.6798 254.277 23.6798C255.296 23.6828 256.316 23.684 257.335 23.6853C258.014 23.6861 258.694 23.6869 259.373 23.6883C259.387 23.6883 259.401 23.6947 259.424 23.706ZM254.453 18.0585H254.455V18.0602H254.453C254.453 18.0596 254.453 18.059 254.453 18.0585ZM254.453 18.0585C254.443 17.9927 254.433 17.9288 254.424 17.8664C254.402 17.7095 254.381 17.5621 254.349 17.4172C254.018 15.8874 252.991 14.8641 251.533 14.6986C250.13 14.5383 248.789 15.0363 248.088 16.4877C247.943 16.7862 247.844 17.1077 247.745 17.4285C247.709 17.5457 247.673 17.6628 247.634 17.7788C247.615 17.8371 247.61 17.9011 247.605 17.9668C247.603 17.9971 247.601 18.0278 247.597 18.0585H254.453Z" fill="black"/>
<path d="M283.388 8.03863C285.138 8.03863 286.887 8.03521 288.637 8.03863C289.676 8.03863 290.697 8.16995 291.699 8.45477C295.33 9.48488 298.21 12.3365 299.268 15.9504C299.472 16.6514 299.61 17.366 299.668 18.0942C299.719 18.744 299.742 19.3972 299.684 20.0487C299.573 21.3005 299.257 22.4978 298.727 23.6387C297.874 25.4721 296.627 26.9815 294.966 28.1378C293.646 29.0554 292.19 29.6489 290.607 29.9303C289.741 30.0838 288.864 30.1401 287.987 30.0821C285.753 29.9371 283.744 29.185 281.969 27.8155C280.935 27.019 280.067 26.0691 279.376 24.9622C279.283 24.8121 279.168 24.7473 278.991 24.7507C278.317 24.761 277.644 24.761 276.97 24.7644C276.69 24.7644 276.411 24.7456 276.138 24.6791C275.302 24.4744 274.744 23.7308 274.782 22.8713C274.821 21.9725 275.561 21.2323 276.462 21.2169C277.732 21.1965 279.003 21.1914 280.273 21.1794C280.625 21.176 280.976 21.176 281.329 21.1743C281.503 21.1743 281.541 21.1999 281.599 21.3653C281.815 21.9912 282.09 22.5916 282.446 23.151C283.18 24.3022 284.172 25.1635 285.393 25.7638C286.031 26.0759 286.695 26.313 287.397 26.4375C288.078 26.5568 288.76 26.5807 289.447 26.5108C290.319 26.4221 291.16 26.2089 291.941 25.8115C294.112 24.7064 295.497 22.977 296.032 20.5876C296.187 19.8918 296.203 19.1857 296.141 18.4779C296.085 17.8213 295.959 17.1801 295.739 16.5575C294.891 14.1579 292.787 12.3075 290.288 11.7702C289.478 11.5963 288.659 11.5571 287.836 11.644C286.458 11.7924 285.23 12.3177 284.131 13.1534C282.954 14.0488 282.138 15.2051 281.643 16.5934C281.619 16.6616 281.595 16.7298 281.568 16.7946C281.52 16.9072 281.431 16.9635 281.31 16.9703C281.273 16.972 281.234 16.972 281.196 16.972C278.459 16.972 275.722 16.9686 272.986 16.9737C272.179 16.9737 271.468 16.4143 271.265 15.7099C270.968 14.6866 271.651 13.5985 272.703 13.4621C272.907 13.4365 273.117 13.4297 273.324 13.4297C274.888 13.4297 276.45 13.4331 278.014 13.4331C278.23 13.4331 278.432 13.3751 278.611 13.2472C279.056 12.9266 279.115 12.287 278.737 11.8828C278.551 11.685 278.328 11.5809 278.05 11.5809C277.804 11.5809 277.558 11.5605 277.314 11.5383C276.794 11.4905 276.416 11.2074 276.133 10.7896C275.428 9.74412 276.047 8.29615 277.292 8.07785C277.483 8.04374 277.679 8.03863 277.874 8.03863C279.712 8.03521 281.551 8.03863 283.389 8.03863H283.388Z" fill="url(#paint1_linear_727_4619)"/>
<path d="M294.561 15.6708C294.74 15.9232 295.087 16.7316 295.168 17.1375C294.486 17.5332 294.091 18.1182 294.087 18.9198C294.085 19.723 294.476 20.3114 295.174 20.7173C295.035 21.229 294.832 21.7151 294.57 22.1858C293.804 21.9794 293.11 22.1107 292.54 22.6787C291.971 23.2466 291.839 23.9407 292.039 24.7201C291.582 24.9828 291.096 25.1823 290.579 25.329C290.182 24.6417 289.602 24.2426 288.797 24.2392C287.99 24.2392 287.408 24.6314 287.004 25.3273C286.493 25.1874 286.008 24.9828 285.539 24.7201C285.749 23.951 285.614 23.2585 285.05 22.6872C284.484 22.1141 283.793 21.9777 283.015 22.1841C282.751 21.7236 282.551 21.2358 282.406 20.7173C283.097 20.3183 283.494 19.7316 283.493 18.9215C283.493 18.1182 283.099 17.5315 282.406 17.1307C282.55 16.6156 282.751 16.1313 283.015 15.6657C283.788 15.8686 284.482 15.7356 285.048 15.1643C285.609 14.598 285.749 13.9107 285.539 13.1313C285.998 12.8653 286.487 12.6674 287.004 12.5225C287.405 13.2149 287.987 13.6123 288.792 13.6123C289.597 13.6123 290.173 13.22 290.577 12.5225C291.087 12.6623 291.575 12.8653 292.039 13.1296C291.838 13.9073 291.969 14.6015 292.537 15.1694C293.101 15.7339 293.79 15.8686 294.56 15.6674V15.6708H294.561ZM288.795 15.5446C286.929 15.5446 285.416 17.0539 285.411 18.9215C285.406 20.7958 286.919 22.3154 288.79 22.3154C290.661 22.3154 292.17 20.8043 292.17 18.9249C292.17 17.0454 290.663 15.5446 288.795 15.5429V15.5446Z" fill="url(#paint2_linear_727_4619)"/>
<path d="M271.753 11.5827C271.41 11.5827 271.067 11.5912 270.724 11.5793C270.509 11.5725 270.289 11.5605 270.083 11.5093C269.288 11.3166 268.741 10.5543 268.766 9.73564C268.789 9.04833 269.304 8.20752 270.238 8.06085C270.351 8.04379 270.465 8.03186 270.579 8.03186C271.333 8.02844 272.087 8.02844 272.841 8.03186C273.08 8.03186 273.313 8.07449 273.537 8.16147C274.212 8.42753 274.64 9.06879 274.637 9.80898C274.633 10.6754 274.048 11.3848 273.199 11.5486C273.083 11.5707 272.964 11.5793 272.846 11.581C272.481 11.5844 272.118 11.581 271.753 11.581V11.5827Z" fill="url(#paint3_linear_727_4619)"/>
<path d="M271.072 21.215H271.796C271.913 21.215 272.033 21.2185 272.15 21.2219C272.476 21.2304 272.764 21.3396 273.012 21.5493C273.124 21.6448 273.23 21.7489 273.327 21.8597C274.13 22.7722 273.701 24.1246 272.725 24.58C272.483 24.6925 272.23 24.7539 271.964 24.7539C271.698 24.7539 271.448 24.7488 271.19 24.7505C270.979 24.7505 270.767 24.7608 270.556 24.771C270.18 24.7898 269.812 24.7642 269.456 24.6294C268.814 24.3856 268.455 23.9148 268.347 23.2463C268.224 22.4805 268.53 21.9024 269.152 21.4726C269.384 21.3123 269.652 21.2389 269.93 21.2253C270.31 21.2048 270.69 21.2048 271.072 21.1963V21.2185V21.215Z" fill="url(#paint4_linear_727_4619)"/>
<path d="M291.01 18.9041C290.754 18.6466 290.511 18.401 290.268 18.1537C290.217 18.1026 290.168 18.0497 290.123 17.9934C290.059 17.9081 290.054 17.8365 290.098 17.7717C290.156 17.6915 290.267 17.654 290.357 17.6949C290.407 17.7171 290.454 17.7495 290.492 17.787C290.831 18.123 291.171 18.4607 291.508 18.7984C291.599 18.8888 291.595 18.9331 291.496 19.032C291.157 19.368 290.818 19.704 290.476 20.04C290.432 20.0843 290.386 20.1321 290.332 20.1594C290.198 20.2259 290.05 20.1457 290.043 19.9991C290.04 19.9479 290.065 19.8933 290.089 19.8456C290.108 19.8097 290.144 19.7808 290.173 19.7518C290.42 19.5028 290.669 19.2538 290.916 19.0065C290.945 18.9775 290.973 18.9451 291.01 18.9058V18.9041Z" fill="url(#paint5_linear_727_4619)"/>
<path d="M286.554 18.9097C286.671 19.0273 286.784 19.1416 286.896 19.2542C287.07 19.4281 287.244 19.6004 287.417 19.7761C287.449 19.8085 287.48 19.846 287.502 19.8852C287.543 19.9637 287.524 20.0592 287.466 20.1206C287.406 20.1837 287.319 20.199 287.232 20.1564C287.195 20.1376 287.159 20.112 287.13 20.083C286.789 19.7471 286.45 19.4111 286.11 19.0734C286.086 19.0495 286.061 19.0256 286.04 19.0001C285.996 18.9404 285.998 18.8721 286.042 18.8125C286.059 18.7886 286.081 18.7681 286.103 18.7476C286.415 18.4372 286.728 18.1268 287.04 17.8164C287.081 17.7755 287.128 17.7363 287.178 17.7056C287.253 17.6612 287.331 17.6664 287.405 17.7158C287.497 17.7772 287.521 17.8625 287.461 17.9563C287.418 18.0228 287.362 18.0842 287.307 18.1405C287.089 18.3639 286.866 18.5856 286.646 18.8073C286.617 18.8363 286.589 18.8687 286.554 18.908V18.9097Z" fill="url(#paint6_linear_727_4619)"/>
<path d="M289.534 17.5757C289.529 17.5945 289.522 17.632 289.509 17.6678C289.151 18.5581 288.792 19.4483 288.434 20.3369C288.402 20.4171 288.356 20.4768 288.264 20.4853C288.129 20.4972 288.027 20.383 288.056 20.2516C288.063 20.2226 288.074 20.1953 288.086 20.1681C288.439 19.2931 288.791 18.4199 289.144 17.5467C289.156 17.516 289.169 17.4836 289.188 17.4563C289.234 17.3847 289.316 17.3574 289.4 17.3796C289.478 17.4 289.533 17.4734 289.536 17.5774H289.534V17.5757Z" fill="url(#paint7_linear_727_4619)"/>
</g>
<defs>
<linearGradient id="paint0_linear_727_4619" x1="-7.02035e-05" y1="17.4511" x2="26.5526" y2="17.4511" gradientUnits="userSpaceOnUse">
<stop offset="0.3" stop-color="#E74A21"/>
<stop offset="0.7011" stop-color="#EC9A1E"/>
</linearGradient>
<linearGradient id="paint1_linear_727_4619" x1="276.537" y1="8.38484" x2="295.752" y2="27.6023" gradientUnits="userSpaceOnUse">
<stop stop-color="#B74294"/>
<stop offset="1" stop-color="#EF6478"/>
</linearGradient>
<linearGradient id="paint2_linear_727_4619" x1="284.267" y1="14.4036" x2="293.311" y2="23.4478" gradientUnits="userSpaceOnUse">
<stop stop-color="#B74294"/>
<stop offset="1" stop-color="#EF6478"/>
</linearGradient>
<linearGradient id="paint3_linear_727_4619" x1="269.872" y1="7.96705" x2="273.547" y2="11.6407" gradientUnits="userSpaceOnUse">
<stop stop-color="#B74294"/>
<stop offset="1" stop-color="#EF6478"/>
</linearGradient>
<linearGradient id="paint4_linear_727_4619" x1="269.299" y1="21.2662" x2="272.742" y2="24.7079" gradientUnits="userSpaceOnUse">
<stop stop-color="#B74294"/>
<stop offset="1" stop-color="#EF6478"/>
</linearGradient>
<linearGradient id="paint5_linear_727_4619" x1="289.605" y1="18.2629" x2="290.935" y2="19.5949" gradientUnits="userSpaceOnUse">
<stop stop-color="#B74294"/>
<stop offset="1" stop-color="#EF6478"/>
</linearGradient>
<linearGradient id="paint6_linear_727_4619" x1="286.61" y1="18.2428" x2="287.978" y2="19.6123" gradientUnits="userSpaceOnUse">
<stop stop-color="#B74294"/>
<stop offset="1" stop-color="#EF6478"/>
</linearGradient>
<linearGradient id="paint7_linear_727_4619" x1="288.248" y1="18.3858" x2="289.335" y2="19.4705" gradientUnits="userSpaceOnUse">
<stop stop-color="#B74294"/>
<stop offset="1" stop-color="#EF6478"/>
</linearGradient>
<clipPath id="clip0_727_4619">
<rect width="120" height="26.1042" fill="white" transform="translate(224 4)"/>
</clipPath>
</defs>
</svg>
