<svg width="143" height="32" viewBox="0 0 143 32" fill="none" xmlns="http://www.w3.org/2000/svg">
<g clip-path="url(#clip0_666_14700)">
<path d="M142.322 15.167C142.322 15.0572 142.331 14.982 142.322 14.9109C142.007 12.3664 140.672 10.5718 138.339 9.51899C137.044 8.93367 135.668 8.67556 134.262 8.578C132.404 8.44996 130.571 8.56987 128.791 9.16333C127.569 9.57183 126.46 10.1714 125.564 11.1144C124.291 12.4537 123.85 14.0756 123.999 15.8824C124.173 18.0245 125.224 19.561 127.179 20.4796C128.38 21.0426 129.661 21.3291 130.953 21.5669C132.071 21.7722 133.191 21.9632 134.307 22.1848C134.886 22.2986 135.449 22.4835 135.951 22.8148C136.975 23.4916 137.024 24.898 136.028 25.6195C135.748 25.8227 135.41 25.969 135.079 26.0768C134.307 26.3267 133.502 26.3328 132.709 26.2353C131.018 26.03 130.065 25.1398 129.718 23.5038C129.697 23.4062 129.657 23.3127 129.628 23.2253H123.474C123.452 23.2822 123.434 23.3087 123.434 23.3371C123.434 23.4408 123.434 23.5444 123.444 23.646C123.598 25.2435 124.2 26.6397 125.32 27.7982C126.429 28.9465 127.803 29.6375 129.321 30.0541C131.563 30.6699 133.839 30.739 136.13 30.3915C137.453 30.1903 138.719 29.8041 139.88 29.1152C141.382 28.2209 142.414 26.9669 142.827 25.2475C143.022 24.4346 143.034 23.6074 142.953 22.7823C142.794 21.1869 142.168 19.8272 140.869 18.8273C140.123 18.2521 139.28 17.87 138.39 17.5794C137.067 17.1465 135.691 16.9534 134.327 16.6912C133.372 16.5083 132.419 16.3092 131.476 16.0714C131.14 15.988 130.817 15.8051 130.529 15.608C130.116 15.3255 129.968 14.9028 130.053 14.4048C130.13 13.9435 130.35 13.5614 130.748 13.3216C131.035 13.1488 131.348 12.9903 131.671 12.911C132.543 12.6936 133.433 12.7037 134.305 12.911C135.297 13.1468 135.935 13.7626 136.17 14.7707C136.199 14.8967 136.231 15.0247 136.266 15.169H142.327H142.322V15.167Z" fill="white"/>
<path d="M112.729 22.0896H106.445C106.351 22.4778 106.28 22.8416 106.174 23.1932C105.916 24.0407 105.455 24.7459 104.664 25.191C103.427 25.8902 101.276 25.8495 100.035 24.5224C99.4756 23.9249 99.122 23.2176 98.9004 22.4433C98.5468 21.2096 98.4777 19.9434 98.5671 18.6691C98.6383 17.6326 98.8192 16.6185 99.2805 15.6734C99.9796 14.2406 101.122 13.4764 102.723 13.45C104.087 13.4276 105.117 14.0089 105.752 15.2304C105.906 15.5291 106.008 15.8584 106.128 16.1734C106.168 16.2811 106.197 16.3929 106.231 16.5047H112.57C112.57 16.4315 112.576 16.3868 112.57 16.3441C112.007 12.887 110.115 10.4888 106.823 9.25924C104.695 8.46662 102.488 8.36296 100.274 8.81618C96.7461 9.53768 94.2016 11.5355 92.7647 14.8584C91.7627 17.1774 91.5819 19.6061 92.0798 22.0652C92.7302 25.2825 94.4373 27.7945 97.3945 29.2985C100.589 30.9244 103.933 31.0544 107.266 29.77C109.965 28.7294 111.747 26.7682 112.497 23.9391C112.656 23.3436 112.765 22.738 112.729 22.0876V22.0896Z" fill="white"/>
<path d="M14.8811 9.17223C14.4177 10.6742 13.9604 12.1659 13.499 13.6577C13.0336 15.1657 12.554 16.6697 12.1089 18.1818C11.6699 19.6735 11.2655 21.1754 10.8468 22.6652C9.50339 18.1553 8.16609 13.6638 6.83488 9.19865C6.18249 9.10313 0.341439 9.13158 0 9.2332C2.38601 16.1291 4.77202 23.0229 7.15396 29.9126H14.3262C16.7183 22.9965 19.1043 16.1006 21.5025 9.1702H14.8811V9.17223Z" fill="white"/>
<path d="M51.6172 29.9263V0.944672C50.9953 0.853215 45.2802 0.881668 44.9754 0.973125C44.8758 2.0076 44.9266 29.5869 45.0343 29.9243H51.6192H51.6172V29.9263Z" fill="white"/>
<path d="M121.463 29.912V9.17773H114.891V29.912H121.463Z" fill="white"/>
<path d="M118.202 0.27002C117.895 0.310667 117.582 0.322861 117.285 0.396027C115.925 0.727304 114.99 1.53619 114.663 2.91821C114.336 4.29616 114.643 5.52574 115.738 6.48909C116.397 7.06832 117.189 7.30814 118.055 7.35285C120.64 7.48699 122.465 5.13553 121.677 2.68042C121.211 1.22727 119.858 0.298473 118.204 0.272052L118.202 0.27002Z" fill="white"/>
<path fill-rule="evenodd" clip-rule="evenodd" d="M42.2138 23.7529C42.2316 23.7613 42.2544 23.7721 42.285 23.7846L42.2829 23.7867C42.0492 24.7845 41.6244 25.6707 41.031 26.4694C39.4376 28.6115 37.2853 29.8574 34.6839 30.3329C32.6352 30.7089 30.5886 30.648 28.5928 30.026C24.9813 28.9001 22.6522 26.4877 21.6563 22.8497C20.8718 19.978 21.0304 17.1327 22.3209 14.4255C23.8432 11.2286 26.404 9.33646 29.8875 8.71455C31.9036 8.35482 33.8973 8.48896 35.822 9.20232C38.5698 10.2205 40.4335 12.1594 41.5472 14.8422C42.3642 16.8075 42.667 18.8703 42.6711 20.984C42.6711 21.0323 42.6632 21.0815 42.6528 21.1456C42.6484 21.1733 42.6435 21.2037 42.6386 21.2381H27.7555C27.7595 21.2959 27.7609 21.3491 27.7622 21.3987C27.7647 21.499 27.7669 21.5846 27.79 21.6649C27.8306 21.8013 27.8687 21.9391 27.9069 22.077C28.0143 22.4648 28.122 22.8538 28.2839 23.2196C29.1436 25.1646 30.8732 25.9491 32.8974 25.7723C33.7937 25.693 34.5944 25.3821 35.2082 24.6972C35.4115 24.4695 35.574 24.1992 35.7326 23.935C35.8179 23.7927 35.9094 23.7216 36.0801 23.7216C37.2947 23.7253 38.5093 23.7267 39.7239 23.7282C40.5335 23.7292 41.3432 23.7302 42.1528 23.7318C42.1691 23.7318 42.1853 23.7394 42.2138 23.7529ZM36.2901 17.023H36.2924V17.025H36.2904C36.2903 17.0243 36.2902 17.0236 36.2901 17.023ZM36.2901 17.023C36.278 16.9446 36.267 16.8685 36.2563 16.7941C36.2294 16.6072 36.2041 16.4314 36.1664 16.2588C35.7721 14.4358 34.5486 13.2163 32.8109 13.0192C31.1383 12.8281 29.5408 13.4216 28.7055 15.1511C28.5329 15.5069 28.4147 15.8899 28.2968 16.2723C28.2537 16.4119 28.2106 16.5515 28.1649 16.6897C28.1413 16.7592 28.1357 16.8354 28.13 16.9137C28.1274 16.9498 28.1247 16.9864 28.1202 17.023H36.2901Z" fill="white"/>
<path d="M70.7675 5.08237C72.8527 5.08237 74.938 5.07831 77.0232 5.08237C78.2609 5.08237 79.4783 5.23887 80.6713 5.57827C84.9982 6.80583 88.4309 10.204 89.691 14.5106C89.9349 15.3459 90.0995 16.1974 90.1686 17.0653C90.2296 17.8396 90.256 18.618 90.1869 19.3944C90.0548 20.8861 89.6788 22.3129 89.0467 23.6725C88.0305 25.8573 86.5449 27.656 84.5653 29.0339C82.9923 30.1273 81.2566 30.8346 79.3706 31.1699C78.3381 31.3529 77.2935 31.4199 76.2488 31.3508C73.5864 31.1781 71.1923 30.2818 69.0766 28.6498C67.845 27.7007 66.8105 26.5686 65.9874 25.2496C65.8756 25.0708 65.7394 24.9936 65.5281 24.9976C64.7253 25.0098 63.9225 25.0098 63.1197 25.0139C62.7864 25.0139 62.4531 24.9915 62.1279 24.9123C61.132 24.6684 60.4675 23.7823 60.5122 22.7579C60.5589 21.6869 61.441 20.8048 62.5141 20.7865C64.0282 20.7622 65.5423 20.7561 67.0564 20.7418C67.4751 20.7378 67.8938 20.7378 68.3145 20.7357C68.5218 20.7357 68.5665 20.7662 68.6356 20.9634C68.8937 21.7092 69.2209 22.4246 69.6457 23.0913C70.5196 24.4631 71.7024 25.4895 73.1576 26.2049C73.9177 26.5768 74.7083 26.8593 75.5456 27.0076C76.3566 27.1499 77.1695 27.1784 77.9886 27.095C79.0271 26.9894 80.0291 26.7353 80.9599 26.2618C83.5471 24.9448 85.1974 22.884 85.8356 20.0366C86.0205 19.2074 86.0388 18.366 85.9656 17.5225C85.8986 16.7401 85.7482 15.9759 85.486 15.2341C84.4759 12.3745 81.968 10.1694 78.9905 9.52921C78.0251 9.32191 77.0496 9.27516 76.068 9.37882C74.4258 9.55563 72.9625 10.1816 71.6536 11.1775C70.2513 12.2445 69.2778 13.6224 68.6884 15.2768C68.66 15.3581 68.6315 15.4394 68.599 15.5166C68.5421 15.6507 68.4364 15.7178 68.2921 15.7259C68.2474 15.728 68.2006 15.728 68.1559 15.728C64.894 15.728 61.632 15.7239 58.3721 15.73C57.4108 15.73 56.5633 15.0634 56.3214 14.224C55.9678 13.0046 56.7807 11.7079 58.0347 11.5453C58.2786 11.5148 58.5286 11.5067 58.7745 11.5067C60.6382 11.5067 62.4998 11.5108 64.3635 11.5108C64.6216 11.5108 64.8614 11.4417 65.0748 11.2892C65.6053 10.9072 65.6764 10.145 65.2252 9.66335C65.0037 9.42759 64.7375 9.30362 64.4062 9.30362C64.1135 9.30362 63.8209 9.27923 63.5302 9.25281C62.9104 9.1959 62.4592 8.85853 62.1218 8.3606C61.2824 7.11475 62.0202 5.38926 63.5038 5.12912C63.7314 5.08847 63.9652 5.08237 64.1969 5.08237C66.3878 5.07831 68.5787 5.08237 70.7696 5.08237H70.7675Z" fill="url(#paint0_linear_666_14700)"/>
<path d="M84.0824 14.1775C84.2958 14.4783 84.7084 15.4417 84.8059 15.9254C83.993 16.3969 83.5215 17.094 83.5174 18.0492C83.5154 19.0065 83.9808 19.7076 84.812 20.1913C84.6474 20.8011 84.4055 21.3803 84.0926 21.9412C83.18 21.6953 82.3528 21.8518 81.674 22.5286C80.9952 23.2054 80.8387 24.0325 81.0765 24.9613C80.5318 25.2743 79.9526 25.5121 79.3368 25.6869C78.8633 24.8678 78.1722 24.3923 77.213 24.3882C76.2517 24.3882 75.5586 24.8556 75.0769 25.6849C74.4672 25.5182 73.89 25.2743 73.3311 24.9613C73.5811 24.0447 73.4206 23.2196 72.7478 22.5387C72.0731 21.8559 71.25 21.6933 70.3232 21.9392C70.0082 21.3904 69.7704 20.8092 69.5977 20.1913C70.4208 19.7158 70.8943 19.0166 70.8923 18.0513C70.8923 17.094 70.4228 16.3949 69.5977 15.9173C69.7684 15.3035 70.0082 14.7263 70.3232 14.1714C71.2439 14.4133 72.0711 14.2548 72.7458 13.5739C73.4145 12.8992 73.5811 12.0801 73.3311 11.1513C73.8778 10.8343 74.4611 10.5985 75.0769 10.4258C75.5546 11.2509 76.2476 11.7245 77.2069 11.7245C78.1662 11.7245 78.8531 11.257 79.3348 10.4258C79.9424 10.5924 80.5237 10.8343 81.0765 11.1493C80.8367 12.0761 80.9932 12.9032 81.67 13.58C82.3427 14.2527 83.1638 14.4133 84.0804 14.1735V14.1775H84.0824ZM77.2109 14.0272C74.9875 14.0272 73.1848 15.8258 73.1787 18.0513C73.1726 20.2848 74.9753 22.0957 77.2048 22.0957C79.4344 22.0957 81.233 20.295 81.233 18.0553C81.233 15.8156 79.4364 14.0272 77.2109 14.0251V14.0272Z" fill="url(#paint1_linear_666_14700)"/>
<path d="M56.9035 9.30574C56.495 9.30574 56.0865 9.31591 55.6779 9.30168C55.4219 9.29355 55.1597 9.27932 54.9138 9.21835C53.9667 8.98869 53.3143 8.08022 53.3448 7.10468C53.3712 6.28563 53.985 5.28367 55.0987 5.10889C55.2329 5.08856 55.369 5.07434 55.5052 5.07434C56.4035 5.07027 57.3018 5.07027 58.2001 5.07434C58.4847 5.07434 58.7631 5.12515 59.0293 5.2288C59.8342 5.54585 60.3443 6.31002 60.3402 7.19207C60.3362 8.22452 59.639 9.06999 58.6269 9.2651C58.4887 9.29152 58.3465 9.30168 58.2062 9.30371C57.7713 9.30778 57.3384 9.30371 56.9035 9.30371V9.30574Z" fill="url(#paint2_linear_666_14700)"/>
<path d="M56.0921 20.7851H56.9538C57.0941 20.7851 57.2364 20.7891 57.3766 20.7932C57.7648 20.8033 58.1082 20.9334 58.4029 21.1834C58.5371 21.2972 58.6631 21.4212 58.7789 21.5533C59.7362 22.6406 59.224 24.2523 58.0615 24.7949C57.7729 24.9291 57.4721 25.0022 57.1551 25.0022C56.838 25.0022 56.5392 24.9961 56.2324 24.9982C55.9803 24.9982 55.7283 25.0104 55.4763 25.0226C55.0292 25.0449 54.5902 25.0144 54.1654 24.8539C53.4013 24.5632 52.9724 24.0023 52.8444 23.2056C52.6981 22.2931 53.0618 21.6041 53.8037 21.0919C54.0801 20.9009 54.3992 20.8135 54.7304 20.7972C55.1836 20.7729 55.6369 20.7729 56.0921 20.7627V20.7891V20.7851Z" fill="url(#paint3_linear_666_14700)"/>
<path d="M79.8519 18.0307C79.5471 17.7238 79.2565 17.4311 78.9679 17.1365C78.9069 17.0755 78.8479 17.0125 78.7951 16.9454C78.7179 16.8438 78.7118 16.7584 78.7646 16.6812C78.8337 16.5857 78.9658 16.541 79.0735 16.5897C79.1325 16.6162 79.1894 16.6548 79.2341 16.6995C79.6385 17.0999 80.043 17.5023 80.4454 17.9047C80.5531 18.0124 80.5491 18.0652 80.4312 18.1831C80.0267 18.5835 79.6223 18.9839 79.2158 19.3843C79.163 19.4371 79.1081 19.494 79.0431 19.5265C78.8845 19.6058 78.7077 19.5103 78.6996 19.3355C78.6955 19.2745 78.726 19.2095 78.7545 19.1526C78.7768 19.1099 78.8195 19.0753 78.854 19.0408C79.1487 18.7441 79.4455 18.4473 79.7402 18.1526C79.7747 18.1181 79.8072 18.0795 79.8519 18.0327V18.0307Z" fill="url(#paint4_linear_666_14700)"/>
<path d="M74.541 18.0369C74.6812 18.1771 74.8154 18.3133 74.9495 18.4474C75.1568 18.6547 75.3641 18.86 75.5694 19.0693C75.608 19.1079 75.6446 19.1527 75.671 19.1994C75.7198 19.2929 75.6974 19.4067 75.6283 19.4799C75.5572 19.5551 75.4535 19.5734 75.3499 19.5225C75.3052 19.5002 75.2625 19.4697 75.2279 19.4352C74.8215 19.0348 74.417 18.6344 74.0126 18.232C73.9841 18.2035 73.9536 18.1751 73.9293 18.1446C73.8764 18.0735 73.8784 17.9922 73.9313 17.921C73.9516 17.8926 73.978 17.8682 74.0045 17.8438C74.3764 17.4739 74.7483 17.104 75.1202 16.7341C75.169 16.6853 75.2259 16.6386 75.2849 16.602C75.3743 16.5492 75.4678 16.5553 75.5552 16.6142C75.6649 16.6874 75.6934 16.789 75.6222 16.9008C75.5714 16.98 75.5043 17.0532 75.4393 17.1203C75.1792 17.3865 74.9129 17.6507 74.6508 17.9149C74.6162 17.9495 74.5837 17.9881 74.541 18.0348V18.0369Z" fill="url(#paint5_linear_666_14700)"/>
<path d="M78.0922 16.4473C78.0861 16.4696 78.078 16.5143 78.0617 16.557C77.6349 17.6179 77.2081 18.6788 76.7813 19.7377C76.7427 19.8332 76.6878 19.9043 76.5781 19.9145C76.4175 19.9287 76.2956 19.7926 76.3301 19.6361C76.3382 19.6015 76.3525 19.569 76.3667 19.5365C76.7874 18.4939 77.2061 17.4533 77.6268 16.4127C77.641 16.3761 77.6573 16.3375 77.6796 16.305C77.7345 16.2196 77.832 16.1871 77.9316 16.2135C78.0251 16.2379 78.0902 16.3253 78.0942 16.4493H78.0922V16.4473Z" fill="url(#paint6_linear_666_14700)"/>
</g>
<defs>
<linearGradient id="paint0_linear_666_14700" x1="62.6035" y1="5.49495" x2="85.5023" y2="28.3958" gradientUnits="userSpaceOnUse">
<stop stop-color="#B74294"/>
<stop offset="1" stop-color="#EF6478"/>
</linearGradient>
<linearGradient id="paint1_linear_666_14700" x1="71.815" y1="12.6675" x2="82.5927" y2="23.4452" gradientUnits="userSpaceOnUse">
<stop stop-color="#B74294"/>
<stop offset="1" stop-color="#EF6478"/>
</linearGradient>
<linearGradient id="paint2_linear_666_14700" x1="54.6618" y1="4.99711" x2="59.0415" y2="9.37485" gradientUnits="userSpaceOnUse">
<stop stop-color="#B74294"/>
<stop offset="1" stop-color="#EF6478"/>
</linearGradient>
<linearGradient id="paint3_linear_666_14700" x1="53.9784" y1="20.846" x2="58.0818" y2="24.9474" gradientUnits="userSpaceOnUse">
<stop stop-color="#B74294"/>
<stop offset="1" stop-color="#EF6478"/>
</linearGradient>
<linearGradient id="paint4_linear_666_14700" x1="78.1773" y1="17.2665" x2="79.7625" y2="18.8538" gradientUnits="userSpaceOnUse">
<stop stop-color="#B74294"/>
<stop offset="1" stop-color="#EF6478"/>
</linearGradient>
<linearGradient id="paint5_linear_666_14700" x1="74.6081" y1="17.2422" x2="76.238" y2="18.8742" gradientUnits="userSpaceOnUse">
<stop stop-color="#B74294"/>
<stop offset="1" stop-color="#EF6478"/>
</linearGradient>
<linearGradient id="paint6_linear_666_14700" x1="76.5598" y1="17.4126" x2="77.8544" y2="18.7052" gradientUnits="userSpaceOnUse">
<stop stop-color="#B74294"/>
<stop offset="1" stop-color="#EF6478"/>
</linearGradient>
<clipPath id="clip0_666_14700">
<rect width="143" height="31.1075" fill="white" transform="translate(0 0.27002)"/>
</clipPath>
</defs>
</svg>
