<svg width="120" height="27" viewBox="0 0 120 27" fill="none" xmlns="http://www.w3.org/2000/svg">
<g clip-path="url(#clip0_723_14545)">
<path d="M119.433 12.5011C119.433 12.409 119.44 12.3459 119.433 12.2862C119.169 10.151 118.048 8.64501 116.09 7.76157C115.004 7.27039 113.849 7.05379 112.669 6.97193C111.11 6.86448 109.572 6.96511 108.078 7.46311C107.053 7.80591 106.122 8.30903 105.369 9.10038C104.302 10.2243 103.932 11.5853 104.056 13.1015C104.203 14.899 105.085 16.1884 106.725 16.9593C107.733 17.4317 108.808 17.6722 109.892 17.8717C110.83 18.044 111.77 18.2043 112.706 18.3902C113.192 18.4857 113.665 18.6409 114.086 18.9189C114.946 19.4868 114.987 20.667 114.151 21.2725C113.916 21.443 113.632 21.5658 113.354 21.6562C112.706 21.866 112.031 21.8711 111.366 21.7892C109.947 21.617 109.147 20.87 108.855 19.497C108.838 19.4152 108.804 19.3367 108.78 19.2634H103.616C103.597 19.3111 103.582 19.3333 103.582 19.3572C103.582 19.4442 103.582 19.5312 103.591 19.6164C103.72 20.9569 104.225 22.1286 105.165 23.1007C106.096 24.0644 107.249 24.6442 108.523 24.9938C110.404 25.5106 112.314 25.5686 114.236 25.277C115.346 25.1081 116.409 24.7841 117.383 24.2059C118.643 23.4555 119.51 22.4032 119.856 20.9604C120.02 20.2782 120.03 19.584 119.962 18.8916C119.829 17.5528 119.303 16.4118 118.213 15.5727C117.588 15.0901 116.88 14.7694 116.133 14.5255C115.022 14.1623 113.868 14.0003 112.723 13.7802C111.922 13.6268 111.122 13.4596 110.331 13.2601C110.049 13.1901 109.778 13.0367 109.536 12.8712C109.19 12.6342 109.065 12.2794 109.137 11.8616C109.202 11.4744 109.386 11.1538 109.72 10.9525C109.961 10.8076 110.223 10.6745 110.494 10.608C111.226 10.4255 111.973 10.4341 112.705 10.608C113.537 10.8059 114.072 11.3226 114.27 12.1686C114.294 12.2743 114.321 12.3817 114.35 12.5028H119.436H119.433V12.5011Z" fill="black"/>
<path d="M94.599 18.31H89.3256C89.2471 18.6358 89.1874 18.9411 89.0988 19.2361C88.8822 19.9473 88.495 20.5391 87.8316 20.9126C86.7929 21.4993 84.9885 21.4652 83.9465 20.3515C83.4775 19.8501 83.1807 19.2566 82.9948 18.6068C82.698 17.5715 82.6401 16.509 82.7151 15.4397C82.7748 14.5699 82.9266 13.7188 83.3137 12.9258C83.9004 11.7234 84.8589 11.0822 86.2028 11.06C87.3472 11.0412 88.2119 11.529 88.744 12.554C88.8736 12.8047 88.9589 13.081 89.0595 13.3453C89.0936 13.4357 89.1175 13.5295 89.1465 13.6233H94.4659C94.4659 13.5619 94.4711 13.5244 94.4659 13.4886C93.9935 10.5876 92.4057 8.57508 89.6428 7.54326C87.8572 6.87812 86.005 6.79114 84.1477 7.17146C81.187 7.77691 79.0517 9.45341 77.8459 12.2419C77.0051 14.1879 76.8533 16.2259 77.2712 18.2896C77.8169 20.9893 79.2495 23.0973 81.731 24.3594C84.4121 25.7238 87.2176 25.8329 90.0146 24.7551C92.2795 23.8819 93.7752 22.2361 94.4045 19.862C94.5376 19.3623 94.6297 18.8541 94.599 18.3083V18.31Z" fill="black"/>
<path d="M12.4876 7.47029C12.0987 8.73065 11.715 9.98248 11.3279 11.2343C10.9373 12.4998 10.5348 13.7618 10.1613 15.0307C9.79293 16.2826 9.45353 17.5429 9.1022 18.793C7.97487 15.0086 6.85266 11.2394 5.73556 7.49246C5.1881 7.4123 0.286522 7.43618 0 7.52146C2.00225 13.3082 4.00449 19.0932 6.00333 24.8748H12.022C14.0294 19.071 16.0316 13.2843 18.0441 7.46859H12.4876V7.47029Z" fill="black"/>
<path d="M43.3138 24.8863V0.566036C42.7919 0.489289 37.996 0.513166 37.7402 0.589913C37.6567 1.45801 37.6993 24.6015 37.7897 24.8846H43.3155H43.3138V24.8863Z" fill="black"/>
<path d="M101.926 24.8745V7.4751H96.4102V24.8745H101.926Z" fill="black"/>
<path d="M99.1906 0C98.9331 0.0341098 98.6704 0.0443427 98.4214 0.10574C97.2804 0.383735 96.4959 1.06252 96.2213 2.22225C95.9467 3.37858 96.2043 4.4104 97.1235 5.2188C97.6761 5.70486 98.3413 5.90611 99.0678 5.94363C101.237 6.0562 102.769 4.08294 102.107 2.02271C101.716 0.803286 100.581 0.0238769 99.1923 0.00170549L99.1906 0Z" fill="black"/>
<path fill-rule="evenodd" clip-rule="evenodd" d="M35.4244 19.706C35.4394 19.7131 35.4585 19.7221 35.4841 19.7326L35.4824 19.7343C35.2863 20.5717 34.9299 21.3153 34.4319 21.9856C33.0948 23.7832 31.2886 24.8286 29.1056 25.2277C27.3865 25.5432 25.6691 25.4921 23.9943 24.9702C20.9636 24.0253 19.0091 22.0009 18.1734 18.9481C17.5151 16.5382 17.6481 14.1506 18.7311 11.8788C20.0085 9.1961 22.1574 7.60829 25.0807 7.08641C26.7725 6.78454 28.4456 6.8971 30.0607 7.49573C32.3665 8.35018 33.9304 9.97722 34.8651 12.2285C35.5507 13.8777 35.8048 15.6087 35.8082 17.3825C35.8082 17.423 35.8015 17.4643 35.7929 17.5181C35.7891 17.5413 35.785 17.5669 35.7809 17.5956H23.2916C23.295 17.6442 23.2961 17.6888 23.2972 17.7305C23.2994 17.8146 23.3012 17.8865 23.3206 17.9538C23.3546 18.0683 23.3866 18.1839 23.4186 18.2996C23.5088 18.6251 23.5992 18.9515 23.735 19.2585C24.4564 20.8906 25.9078 21.549 27.6065 21.4006C28.3586 21.3341 29.0306 21.0731 29.5456 20.4984C29.7162 20.3074 29.8526 20.0805 29.9857 19.8588C30.0573 19.7394 30.134 19.6798 30.2773 19.6798C31.2965 19.6828 32.3157 19.684 33.3349 19.6853C34.0144 19.6861 34.6938 19.6869 35.3733 19.6883C35.3869 19.6883 35.4005 19.6947 35.4244 19.706ZM30.4527 14.0585H30.4547V14.0602H30.4529C30.4529 14.0596 30.4528 14.059 30.4527 14.0585ZM30.4527 14.0585C30.4425 13.9927 30.4333 13.9288 30.4244 13.8664C30.4018 13.7095 30.3806 13.5621 30.3489 13.4172C30.018 11.8874 28.9913 10.8641 27.5331 10.6986C26.1295 10.5383 24.789 11.0363 24.0881 12.4877C23.9432 12.7862 23.844 13.1077 23.745 13.4285C23.7089 13.5457 23.6727 13.6628 23.6344 13.7788C23.6146 13.8371 23.6099 13.9011 23.6051 13.9668C23.6029 13.9971 23.6006 14.0278 23.5969 14.0585H30.4527Z" fill="black"/>
<path d="M59.3877 4.03863C61.1375 4.03863 62.8874 4.03521 64.6372 4.03863C65.6758 4.03863 66.6974 4.16995 67.6985 4.45477C71.3295 5.48488 74.2101 8.33646 75.2675 11.9504C75.4722 12.6514 75.6103 13.366 75.6683 14.0942C75.7195 14.744 75.7416 15.3972 75.6837 16.0487C75.5728 17.3005 75.2573 18.4978 74.7269 19.6387C73.8741 21.4721 72.6274 22.9815 70.9663 24.1378C69.6462 25.0554 68.1897 25.6489 66.607 25.9303C65.7406 26.0838 64.864 26.1401 63.9874 26.0821C61.7532 25.9371 59.7441 25.185 57.9687 23.8155C56.9352 23.019 56.0671 22.0691 55.3764 20.9622C55.2826 20.8121 55.1683 20.7473 54.9909 20.7507C54.3173 20.761 53.6436 20.761 52.9699 20.7644C52.6902 20.7644 52.4105 20.7456 52.1377 20.6791C51.302 20.4744 50.7443 19.7308 50.7818 18.8713C50.821 17.9725 51.5612 17.2323 52.4617 17.2169C53.7323 17.1965 55.0029 17.1914 56.2735 17.1794C56.6248 17.176 56.9761 17.176 57.3292 17.1743C57.5031 17.1743 57.5406 17.1999 57.5986 17.3653C57.8152 17.9912 58.0898 18.5916 58.4463 19.151C59.1796 20.3022 60.1722 21.1635 61.3933 21.7638C62.0312 22.0759 62.6946 22.313 63.3973 22.4375C64.0778 22.5568 64.76 22.5807 65.4473 22.5108C66.3188 22.4221 67.1596 22.2089 67.9407 21.8115C70.1118 20.7064 71.4967 18.977 72.0322 16.5876C72.1874 15.8918 72.2027 15.1857 72.1413 14.4779C72.0851 13.8213 71.9589 13.1801 71.7389 12.5575C70.8912 10.1579 68.7866 8.30747 66.2881 7.77024C65.478 7.59628 64.6594 7.55705 63.8356 7.64403C62.4576 7.79241 61.2296 8.3177 60.1313 9.15339C58.9545 10.0488 58.1376 11.2051 57.643 12.5934C57.6191 12.6616 57.5952 12.7298 57.5679 12.7946C57.5202 12.9072 57.4315 12.9635 57.3104 12.9703C57.2729 12.972 57.2337 12.972 57.1961 12.972C54.4588 12.972 51.7215 12.9686 48.9859 12.9737C48.1792 12.9737 47.468 12.4143 47.2651 11.7099C46.9683 10.6866 47.6505 9.59852 48.7028 9.46208C48.9075 9.4365 49.1172 9.42968 49.3236 9.42968C50.8875 9.42968 52.4498 9.43309 54.0137 9.43309C54.2303 9.43309 54.4315 9.3751 54.6106 9.24719C55.0557 8.92656 55.1154 8.287 54.7368 7.8828C54.5509 7.68496 54.3275 7.58093 54.0495 7.58093C53.8039 7.58093 53.5583 7.56046 53.3144 7.53829C52.7943 7.49054 52.4156 7.20743 52.1325 6.78958C51.4282 5.74412 52.0473 4.29615 53.2923 4.07785C53.4833 4.04374 53.6794 4.03863 53.8738 4.03863C55.7124 4.03521 57.5509 4.03863 59.3894 4.03863H59.3877Z" fill="url(#paint0_linear_723_14545)"/>
<path d="M70.5613 11.6708C70.7404 11.9232 71.0866 12.7316 71.1684 13.1375C70.4862 13.5332 70.0906 14.1182 70.0872 14.9198C70.0855 15.723 70.476 16.3114 71.1736 16.7173C71.0354 17.229 70.8325 17.7151 70.5698 18.1858C69.804 17.9794 69.1099 18.1107 68.5403 18.6787C67.9706 19.2466 67.8393 19.9407 68.0389 20.7201C67.5818 20.9828 67.0957 21.1823 66.579 21.329C66.1816 20.6417 65.6017 20.2426 64.7967 20.2392C63.99 20.2392 63.4085 20.6314 63.0043 21.3273C62.4926 21.1874 62.0082 20.9828 61.5392 20.7201C61.749 19.951 61.6143 19.2585 61.0498 18.6872C60.4835 18.1141 59.7928 17.9777 59.0151 18.1841C58.7508 17.7236 58.5512 17.2358 58.4062 16.7173C59.097 16.3183 59.4944 15.7316 59.4926 14.9215C59.4926 14.1182 59.0987 13.5315 58.4062 13.1307C58.5495 12.6156 58.7508 12.1313 59.0151 11.6657C59.7877 11.8686 60.4818 11.7356 61.0481 11.1643C61.6092 10.598 61.749 9.91073 61.5392 9.13132C61.998 8.86526 62.4875 8.66743 63.0043 8.52246C63.405 9.21489 63.9866 9.61227 64.7916 9.61227C65.5966 9.61227 66.1731 9.22001 66.5773 8.52246C67.0872 8.66231 67.575 8.86526 68.0389 9.12962C67.8376 9.90732 67.9689 10.6015 68.5369 11.1694C69.1014 11.7339 69.7904 11.8686 70.5596 11.6674V11.6708H70.5613ZM64.795 11.5446C62.9292 11.5446 61.4164 13.0539 61.4113 14.9215C61.4062 16.7958 62.919 18.3154 64.7899 18.3154C66.6608 18.3154 68.1702 16.8043 68.1702 14.9249C68.1702 13.0454 66.6625 11.5446 64.795 11.5429V11.5446Z" fill="url(#paint1_linear_723_14545)"/>
<path d="M47.7528 7.58269C47.41 7.58269 47.0672 7.59121 46.7244 7.57927C46.5095 7.57245 46.2895 7.56051 46.0831 7.50935C45.2884 7.31663 44.7409 6.55428 44.7665 5.73564C44.7887 5.04833 45.3037 4.20752 46.2383 4.06085C46.3509 4.04379 46.4652 4.03186 46.5794 4.03186C47.3332 4.02844 48.0871 4.02844 48.8409 4.03186C49.0797 4.03186 49.3133 4.07449 49.5367 4.16147C50.2121 4.42753 50.6402 5.06879 50.6368 5.80898C50.6334 6.67537 50.0484 7.38485 49.1991 7.54858C49.0831 7.57075 48.9637 7.57927 48.846 7.58098C48.481 7.58439 48.1178 7.58098 47.7528 7.58098V7.58269Z" fill="url(#paint2_linear_723_14545)"/>
<path d="M47.0724 17.215H47.7956C47.9132 17.215 48.0326 17.2185 48.1503 17.2219C48.4761 17.2304 48.7643 17.3396 49.0116 17.5493C49.1241 17.6448 49.2299 17.7489 49.3271 17.8597C50.1304 18.7722 49.7006 20.1246 48.7251 20.58C48.4829 20.6925 48.2305 20.7539 47.9644 20.7539C47.6984 20.7539 47.4477 20.7488 47.1901 20.7505C46.9786 20.7505 46.7672 20.7608 46.5557 20.771C46.1805 20.7898 45.8121 20.7642 45.4556 20.6294C44.8144 20.3856 44.4545 19.9148 44.3471 19.2463C44.2243 18.4805 44.5296 17.9024 45.1521 17.4726C45.384 17.3123 45.6518 17.2389 45.9298 17.2253C46.3101 17.2048 46.6904 17.2048 47.0724 17.1963V17.2185V17.215Z" fill="url(#paint3_linear_723_14545)"/>
<path d="M67.0103 14.9041C66.7545 14.6466 66.5106 14.401 66.2684 14.1537C66.2172 14.1026 66.1678 14.0497 66.1234 13.9934C66.0586 13.9081 66.0535 13.8365 66.0979 13.7717C66.1558 13.6915 66.2667 13.654 66.3571 13.6949C66.4065 13.7171 66.4543 13.7495 66.4918 13.787C66.8312 14.123 67.1706 14.4607 67.5083 14.7984C67.5987 14.8888 67.5953 14.9331 67.4964 15.032C67.157 15.368 66.8176 15.704 66.4765 16.04C66.4321 16.0843 66.3861 16.1321 66.3315 16.1594C66.1985 16.2259 66.0501 16.1457 66.0433 15.9991C66.0399 15.9479 66.0655 15.8933 66.0893 15.8456C66.1081 15.8097 66.1439 15.7808 66.1729 15.7518C66.4202 15.5028 66.6692 15.2538 66.9165 15.0065C66.9455 14.9775 66.9728 14.9451 67.0103 14.9058V14.9041Z" fill="url(#paint4_linear_723_14545)"/>
<path d="M62.5536 14.9097C62.6713 15.0273 62.7838 15.1416 62.8964 15.2542C63.0703 15.4281 63.2443 15.6004 63.4166 15.7761C63.449 15.8085 63.4797 15.846 63.5018 15.8852C63.5428 15.9637 63.524 16.0592 63.466 16.1206C63.4063 16.1837 63.3193 16.199 63.2324 16.1564C63.1948 16.1376 63.159 16.112 63.13 16.083C62.7889 15.7471 62.4495 15.4111 62.1102 15.0734C62.0863 15.0495 62.0607 15.0256 62.0402 15.0001C61.9959 14.9404 61.9976 14.8721 62.0419 14.8125C62.059 14.7886 62.0812 14.7681 62.1033 14.7476C62.4154 14.4372 62.7275 14.1268 63.0396 13.8164C63.0806 13.7755 63.1283 13.7363 63.1778 13.7056C63.2528 13.6612 63.3313 13.6664 63.4046 13.7158C63.4967 13.7772 63.5206 13.8625 63.4609 13.9563C63.4183 14.0228 63.362 14.0842 63.3074 14.1405C63.0891 14.3639 62.8657 14.5856 62.6457 14.8073C62.6167 14.8363 62.5894 14.8687 62.5536 14.908V14.9097Z" fill="url(#paint5_linear_723_14545)"/>
<path d="M65.5344 13.5757C65.5293 13.5945 65.5224 13.632 65.5088 13.6678C65.1507 14.5581 64.7925 15.4483 64.4343 16.3369C64.4019 16.4171 64.3559 16.4768 64.2638 16.4853C64.1291 16.4972 64.0267 16.383 64.0557 16.2516C64.0625 16.2226 64.0745 16.1953 64.0864 16.1681C64.4395 15.2931 64.7908 14.4199 65.1438 13.5467C65.1558 13.516 65.1694 13.4836 65.1882 13.4563C65.2342 13.3847 65.3161 13.3574 65.3997 13.3796C65.4781 13.4 65.5327 13.4734 65.5361 13.5774H65.5344V13.5757Z" fill="url(#paint6_linear_723_14545)"/>
</g>
<defs>
<linearGradient id="paint0_linear_723_14545" x1="52.5367" y1="4.38484" x2="71.7525" y2="23.6023" gradientUnits="userSpaceOnUse">
<stop stop-color="#B74294"/>
<stop offset="1" stop-color="#EF6478"/>
</linearGradient>
<linearGradient id="paint1_linear_723_14545" x1="60.2669" y1="10.4036" x2="69.3112" y2="19.4478" gradientUnits="userSpaceOnUse">
<stop stop-color="#B74294"/>
<stop offset="1" stop-color="#EF6478"/>
</linearGradient>
<linearGradient id="paint2_linear_723_14545" x1="45.8716" y1="3.96705" x2="49.547" y2="7.64067" gradientUnits="userSpaceOnUse">
<stop stop-color="#B74294"/>
<stop offset="1" stop-color="#EF6478"/>
</linearGradient>
<linearGradient id="paint3_linear_723_14545" x1="45.2987" y1="17.2662" x2="48.7421" y2="20.7079" gradientUnits="userSpaceOnUse">
<stop stop-color="#B74294"/>
<stop offset="1" stop-color="#EF6478"/>
</linearGradient>
<linearGradient id="paint4_linear_723_14545" x1="65.605" y1="14.2629" x2="66.9352" y2="15.5949" gradientUnits="userSpaceOnUse">
<stop stop-color="#B74294"/>
<stop offset="1" stop-color="#EF6478"/>
</linearGradient>
<linearGradient id="paint5_linear_723_14545" x1="62.6099" y1="14.2428" x2="63.9777" y2="15.6123" gradientUnits="userSpaceOnUse">
<stop stop-color="#B74294"/>
<stop offset="1" stop-color="#EF6478"/>
</linearGradient>
<linearGradient id="paint6_linear_723_14545" x1="64.2484" y1="14.3858" x2="65.3348" y2="15.4705" gradientUnits="userSpaceOnUse">
<stop stop-color="#B74294"/>
<stop offset="1" stop-color="#EF6478"/>
</linearGradient>
<clipPath id="clip0_723_14545">
<rect width="120" height="26.1042" fill="white"/>
</clipPath>
</defs>
</svg>
