<svg width="1728" height="1117" viewBox="0 0 1728 1117" fill="none" xmlns="http://www.w3.org/2000/svg">
<g clip-path="url(#clip0_527_14031)">
<rect width="1728" height="1117" fill="#002068"/>
<g clip-path="url(#clip1_527_14031)">
<path d="M1461.87 677.063C1461.87 677.071 1461.87 677.079 1461.86 677.08C1438.4 681.34 1413.57 679.784 1389.53 671.187C1316.63 645.206 1278.74 565.167 1304.87 492.441C1312.95 470.042 1315.46 445.308 1310.9 420.23C1297.1 344.252 1224.18 293.849 1147.98 307.698C1124.53 311.989 1099.65 310.411 1075.59 301.846C1002.75 275.884 964.857 195.993 990.849 123.322C1040 -13.0671 1158.63 -120.455 1311.88 -148.304C1540.49 -189.85 1759.4 -38.7575 1800.82 189.176C1842.02 415.877 1692.11 633.165 1465.57 676.375L1461.88 677.046C1461.87 677.048 1461.87 677.055 1461.87 677.063Z" fill="url(#paint0_linear_527_14031)"/>
<path d="M751.566 166.819L751.968 167.282L751.973 167.309L752.058 167.408C802.385 225.938 890.762 232.989 949.848 182.978C969.399 166.443 983.301 145.705 991.374 123.234C1017.41 50.7587 1097.44 13.0228 1170.1 38.9146L1434.13 133.074L1434.29 132.622L1434.13 133.074C1462.1 143.039 1487.13 161.888 1504.46 188.714C1542.88 248.205 1530.08 325.946 1477.25 370.512L1477.24 370.512L1049.23 732.518C1049.23 732.518 1049.23 732.518 1049.23 732.518C1012.38 763.616 960.388 774.863 911.72 757.508L911.559 757.96L911.72 757.508C839.068 731.616 801.312 651.851 827.352 579.377L827.357 579.363L827.361 579.349C827.422 579.141 827.513 578.947 827.622 578.716L827.633 578.694L827.641 578.671C853.386 505.87 815.39 425.997 742.461 400.006C718.503 391.467 693.734 389.789 670.336 394.011L670.335 394.011L670.334 394.012L670.333 394.012L670.333 394.012L670.332 394.012L670.331 394.012L670.33 394.012L670.329 394.013L670.328 394.013L670.328 394.013L670.327 394.013L670.326 394.013L670.325 394.013L670.324 394.013L670.323 394.014L670.322 394.014L670.322 394.014L670.321 394.014L670.32 394.014L670.319 394.014L670.318 394.015L670.317 394.015L670.316 394.015L670.316 394.015L670.315 394.015L670.314 394.015L670.313 394.016L670.312 394.016L670.311 394.016L670.31 394.016L670.31 394.016L670.309 394.016L670.308 394.016L670.307 394.017L670.306 394.017L670.305 394.017L670.304 394.017L670.304 394.017L670.303 394.017L670.302 394.018L670.301 394.018L670.3 394.018L670.299 394.018L670.298 394.018L670.297 394.018L670.297 394.018L670.296 394.019L670.295 394.019L670.294 394.019L670.293 394.019L670.292 394.019L670.291 394.019L670.291 394.02L670.29 394.02L670.289 394.02L670.288 394.02L670.287 394.02L670.286 394.02L670.285 394.021L670.284 394.021L670.284 394.021L670.283 394.021L670.282 394.021L670.281 394.021L670.28 394.022L670.279 394.022L670.278 394.022L670.277 394.022L670.276 394.022L670.276 394.022L670.275 394.022L670.274 394.023L670.273 394.023L670.272 394.023L670.271 394.023L670.27 394.023L670.269 394.023L670.269 394.024L670.268 394.024L670.267 394.024L670.266 394.024L670.265 394.024L670.264 394.024L670.263 394.025L670.262 394.025L670.261 394.025L670.261 394.025L670.26 394.025L670.259 394.025L670.258 394.026L670.257 394.026L670.256 394.026L670.255 394.026L670.254 394.026L670.253 394.026L670.253 394.027L670.252 394.027L670.251 394.027L670.25 394.027L670.249 394.027L670.248 394.027L670.247 394.027L670.246 394.028L670.245 394.028L670.244 394.028L670.244 394.028L670.243 394.028L670.242 394.028L670.241 394.029L670.24 394.029L670.239 394.029L670.238 394.029L670.237 394.029L670.236 394.029L670.235 394.03L670.235 394.03L670.234 394.03L670.233 394.03L670.232 394.03L670.231 394.03L670.23 394.031L670.229 394.031L670.228 394.031L670.227 394.031L670.226 394.031L670.226 394.031L670.225 394.032L670.224 394.032L670.223 394.032L670.222 394.032L670.221 394.032L670.22 394.032L670.219 394.033L670.218 394.033L670.217 394.033L670.216 394.033L670.216 394.033L670.215 394.033L670.214 394.034L670.213 394.034L670.212 394.034L670.211 394.034L670.21 394.034L670.209 394.034L670.208 394.035L670.207 394.035L670.206 394.035L670.206 394.035L670.205 394.035L670.204 394.035L670.203 394.036L670.202 394.036L670.201 394.036L670.2 394.036L670.199 394.036L670.198 394.036L670.197 394.037L670.196 394.037L670.196 394.037L670.195 394.037L670.194 394.037L670.193 394.037L670.192 394.038L670.191 394.038L670.19 394.038L670.189 394.038L670.188 394.038L670.187 394.038L670.186 394.039L670.185 394.039L670.185 394.039L670.184 394.039L670.183 394.039L670.182 394.039L670.181 394.04L670.18 394.04L670.179 394.04L670.178 394.04L670.177 394.04L670.176 394.04L670.175 394.041L670.174 394.041L670.174 394.041L670.173 394.041L670.172 394.041L670.171 394.041L670.17 394.042L670.169 394.042L670.168 394.042L670.167 394.042L670.166 394.042L670.165 394.042L670.164 394.043L670.163 394.043L670.162 394.043L670.162 394.043L670.161 394.043L670.16 394.043L670.159 394.044L670.158 394.044L670.157 394.044L670.156 394.044L670.155 394.044L670.154 394.044L670.153 394.045L670.152 394.045L670.151 394.045L670.151 394.045L670.15 394.045L670.149 394.045L670.148 394.046L670.147 394.046L670.146 394.046L670.145 394.046L670.144 394.046L670.143 394.046L670.142 394.047L670.141 394.047L670.14 394.047L670.139 394.047L670.138 394.047L670.138 394.047L670.137 394.048L670.136 394.048L670.135 394.048L670.134 394.048L670.133 394.048L670.132 394.048L670.131 394.049L670.13 394.049L670.129 394.049L670.128 394.049L670.127 394.049L670.126 394.049L670.126 394.05L670.125 394.05L670.124 394.05L670.123 394.05L670.122 394.05L670.121 394.05L670.12 394.051L670.119 394.051L670.118 394.051L670.117 394.051L670.116 394.051L670.115 394.051L670.114 394.052L670.114 394.052L670.113 394.052L670.112 394.052L670.111 394.052L670.11 394.052L670.109 394.053L670.108 394.053L670.107 394.053L670.106 394.053L670.105 394.053L670.104 394.053L670.103 394.054L670.102 394.054L670.101 394.054L670.101 394.054L670.1 394.054L670.099 394.054L670.098 394.055L670.097 394.055L670.096 394.055L670.095 394.055L670.094 394.055L670.093 394.055L670.092 394.056L670.091 394.056L670.09 394.056L670.089 394.056L670.088 394.056L670.088 394.056L670.087 394.057L670.086 394.057L670.085 394.057L670.084 394.057L670.083 394.057L670.082 394.057L670.081 394.058L670.08 394.058L670.079 394.058L670.078 394.058L670.077 394.058L670.076 394.058L670.076 394.059L670.075 394.059L670.074 394.059L670.073 394.059L670.072 394.059L670.071 394.06L670.07 394.06L670.069 394.06L670.068 394.06L670.067 394.06L670.066 394.06L670.065 394.061L670.064 394.061L670.064 394.061L670.063 394.061L670.062 394.061L670.061 394.061L670.06 394.062L670.059 394.062L670.058 394.062L670.057 394.062L670.056 394.062L670.055 394.062L670.054 394.063L670.053 394.063L670.052 394.063L670.052 394.063L670.051 394.063L670.05 394.063L670.049 394.064L670.048 394.064L670.047 394.064L670.046 394.064L670.045 394.064L670.044 394.064L670.043 394.065L670.042 394.065L670.041 394.065L670.04 394.065L670.04 394.065L670.039 394.065L670.038 394.066L670.037 394.066L670.036 394.066L670.035 394.066L670.034 394.066L670.033 394.066L670.032 394.067L670.031 394.067L670.03 394.067L670.029 394.067L670.029 394.067L670.028 394.067L670.027 394.068L670.026 394.068L670.025 394.068L670.024 394.068L670.023 394.068L670.022 394.068L670.021 394.069L670.02 394.069L670.019 394.069L670.018 394.069L670.018 394.069L670.017 394.069L670.016 394.07L670.015 394.07L670.014 394.07L670.013 394.07L670.012 394.07L670.011 394.07L670.01 394.071L670.009 394.071L670.008 394.071L670.007 394.071L670.007 394.071L670.006 394.071L670.005 394.072L670.004 394.072L670.003 394.072L670.002 394.072L670.001 394.072L670 394.072L669.999 394.073L669.998 394.073L669.997 394.073L669.997 394.073L669.996 394.073L669.995 394.073L669.994 394.074L669.993 394.074L669.992 394.074L669.991 394.074L669.99 394.074L669.989 394.074L669.988 394.075L669.987 394.075L669.987 394.075L669.986 394.075L669.985 394.075L669.984 394.075L669.983 394.075L669.982 394.076L669.981 394.076L669.98 394.076L669.979 394.076L669.978 394.076L669.978 394.076L669.977 394.077L669.976 394.077L669.975 394.077L669.974 394.077L669.973 394.077L669.972 394.077L669.971 394.078L669.97 394.078L669.969 394.078L669.969 394.078L669.968 394.078L669.967 394.078L669.966 394.079L669.965 394.079L669.964 394.079L669.963 394.079L669.962 394.079L669.961 394.079L669.96 394.08L669.96 394.08L669.959 394.08L669.958 394.08L669.957 394.08L669.956 394.08L669.955 394.081L669.954 394.081L669.953 394.081L669.952 394.081L669.952 394.081L669.951 394.081L669.95 394.082L669.949 394.082L669.948 394.082L669.947 394.082L669.946 394.082L669.945 394.082L669.944 394.082L669.944 394.083L669.943 394.083L669.942 394.083L669.941 394.083L669.94 394.083L669.939 394.083L669.938 394.084L669.937 394.084L669.937 394.084L669.936 394.084L669.935 394.084L669.934 394.084L669.933 394.085L669.932 394.085L669.931 394.085L669.93 394.085L669.929 394.085L669.929 394.085L669.928 394.086L669.927 394.086L669.926 394.086L669.925 394.086L669.924 394.086L669.923 394.086L669.922 394.086L669.922 394.087L669.921 394.087L669.92 394.087L669.919 394.087L669.918 394.087L669.917 394.087L669.916 394.088L669.915 394.088L669.915 394.088L669.914 394.088L669.913 394.088L669.912 394.088L669.911 394.089L669.91 394.089L669.909 394.089L669.909 394.089L669.908 394.089L669.907 394.089L669.906 394.089L669.905 394.09L669.904 394.09L669.903 394.09L669.902 394.09L669.902 394.09L669.901 394.09L669.9 394.091L669.899 394.091L669.898 394.091L669.897 394.091L669.896 394.091L669.896 394.091L669.895 394.092L669.894 394.092L669.893 394.092L669.892 394.092L669.891 394.092L669.89 394.092L669.89 394.092L669.889 394.093L669.888 394.093L669.887 394.093L669.886 394.093L669.885 394.093L669.885 394.093L669.884 394.094L669.883 394.094L669.882 394.094L669.881 394.094L669.88 394.094L669.879 394.094L669.879 394.094L669.878 394.095L669.877 394.095L669.876 394.095L669.875 394.095C593.929 407.897 521.212 357.704 507.453 281.988C493.693 206.273 544.1 133.705 620.046 119.903C670.924 110.657 720.342 130.178 751.563 166.815L751.566 166.819Z" stroke="#FFC100" stroke-width="0.96"/>
</g>
</g>
<defs>
<linearGradient id="paint0_linear_527_14031" x1="1725.82" y1="-223.529" x2="1044.78" y2="716.498" gradientUnits="userSpaceOnUse">
<stop stop-color="#FF585D"/>
<stop offset="1" stop-color="#FFC100"/>
</linearGradient>
<clipPath id="clip0_527_14031">
<rect width="1728" height="1117" fill="white"/>
</clipPath>
<clipPath id="clip1_527_14031">
<rect width="1289.6" height="838.9" fill="white" transform="translate(457 7.05225) rotate(-10.2999)"/>
</clipPath>
</defs>
</svg>
